<svg width="44" height="44" viewBox="0 0 44 44" fill="none" xmlns="http://www.w3.org/2000/svg">
<g id="Visualization Type - Charts">
<g id="KPI card">
<foreignObject x="3.1909" y="9.34519" width="37.6182" height="26.9258"><div xmlns="http://www.w3.org/1999/xhtml" style="backdrop-filter:blur(1.4px);clip-path:url(#bgblur_0_1488_8227_clip_path);height:100%;width:100%"></div></foreignObject><g id="kpi-card" filter="url(#filter0_in_1488_8227)" data-figma-bg-blur-radius="2.8091">
<rect x="6" y="12.1543" width="32" height="19.6923" rx="0.510746" fill="url(#paint0_linear_1488_8227)" fill-opacity="0.4"/>
<g id="Frame 2087327143">
<g id="Frame 2087327819">
<foreignObject x="4.92136" y="11.0766" width="30.8995" height="7.0225"><div xmlns="http://www.w3.org/1999/xhtml" style="backdrop-filter:blur(1.4px);clip-path:url(#bgblur_2_1488_8227_clip_path);height:100%;width:100%"></div></foreignObject><g id="Frame 2087328339" filter="url(#filter1_i_1488_8227)" data-figma-bg-blur-radius="2.8091">
<g clip-path="url(#clip1_1488_8227)">
<rect x="33.0117" y="13.8857" width="1.40455" height="25.2819" rx="0.702277" transform="rotate(90 33.0117 13.8857)" fill="black"/>
<g id="Rectangle 427320417" filter="url(#filter2_iin_1488_8227)">
<path d="M32.3094 13.8857C32.6973 13.8857 33.0117 14.2002 33.0117 14.588C33.0117 14.9759 32.6973 15.2903 32.3094 15.2903L8.43206 15.2903C8.0442 15.2903 7.72978 14.9759 7.72978 14.588C7.72978 14.2002 8.0442 13.8857 8.43206 13.8857L32.3094 13.8857Z" fill="url(#paint1_linear_1488_8227)" fill-opacity="0.03"/>
</g>
<g id="Rectangle 427320419" filter="url(#filter3_f_1488_8227)">
<rect x="11.9102" y="13.8857" width="2.10683" height="4.17971" transform="rotate(90 11.9102 13.8857)" fill="url(#paint2_linear_1488_8227)"/>
</g>
<g id="Vector 49" filter="url(#filter4_fn_1488_8227)">
<path d="M24.416 15.0148C24.4868 14.9482 24.5449 14.8919 24.5849 14.8525C24.6258 14.8125 24.6513 14.788 24.68 14.7659C24.7087 14.7438 24.7388 14.7253 24.788 14.696C24.8362 14.6673 24.9055 14.6254 24.9879 14.5739C24.9879 14.5739 24.9879 14.5739 24.9879 14.5739C25.6504 14.1515 25.9503 13.8967 25.9516 13.8983C25.9525 13.8993 25.9515 13.8982 25.9469 13.8943C25.928 13.8834 25.8698 13.8115 25.6307 13.7478C25.398 13.6725 24.9535 13.7542 24.7618 13.9144C24.5579 14.0671 24.5136 14.1816 24.4805 14.2637C24.454 14.3541 24.4316 14.4043 24.4516 14.6212C24.4882 14.9075 24.6653 15.0673 24.6939 15.0654C24.7331 15.0739 24.6874 15.013 24.6098 14.9581C24.3835 14.7919 23.9407 14.6309 23.5986 14.5551C23.408 14.4588 22.8319 14.5461 22.3499 14.6605C22.2515 14.6828 22.1414 14.7135 22.058 14.7311C21.8095 14.3343 21.561 13.9375 21.3126 13.5407C21.4186 13.4417 21.503 13.3621 21.6001 13.2782C22.0926 12.8785 22.5447 12.4757 23.4637 12.2846C24.2198 12.1562 24.8918 12.1705 25.6839 12.4224C25.9663 12.5208 26.2688 12.6505 26.6022 12.9191C26.9228 13.1737 27.335 13.6832 27.4028 14.3646C27.4262 15.2591 27.2725 15.7682 26.4855 16.4175C26.0843 16.7266 25.3652 16.857 24.8843 16.7152C24.3954 16.5877 24.1196 16.369 23.9092 16.1889C23.853 16.139 23.8082 16.096 23.7616 16.0486C23.6525 15.9377 23.8524 15.5655 24.416 15.0148Z" fill="#53A9E8"/>
</g>
<g id="Vector 48" filter="url(#filter5_fn_1488_8227)">
<path d="M17.4881 13.8638C17.4937 14.0086 17.4959 14.1308 17.4966 14.2161C17.4976 14.3029 17.4991 14.3569 17.5093 14.411C17.5195 14.465 17.5378 14.5159 17.5685 14.5971C17.599 14.6768 17.6415 14.7913 17.6891 14.9282C17.6891 14.9282 17.6891 14.9282 17.6891 14.9282C18.0709 16.0509 18.2087 16.6279 18.2723 16.6232C18.3 16.6214 18.3218 16.6207 18.3398 16.6205C18.4068 16.6161 18.3832 16.6432 18.1909 16.5538C18.0023 16.4788 17.6801 16.1525 17.6047 15.8779C17.5178 15.6037 17.5592 15.4803 17.5806 15.4135C17.6177 15.3406 17.6034 15.3151 17.8112 15.1074C17.9383 14.9915 18.0962 14.9283 18.1652 14.9205C18.2381 14.9106 18.2334 14.9331 18.1794 14.9445C18.0682 14.9718 17.7952 14.9568 17.503 14.8946C16.6342 14.7121 15.5644 14.2297 14.7392 13.6857C14.0786 13.2864 13.2796 12.2631 12.623 11.2886C12.4909 11.0933 12.3537 10.8768 12.2389 10.6985C11.5816 10.9456 10.9242 11.1927 10.2668 11.4398C10.3337 11.7338 10.3956 11.9849 10.4694 12.2512C10.8671 13.5701 11.2555 14.8591 12.4407 16.2156C13.5196 17.3637 14.6856 18.2193 16.237 18.8419C16.7824 19.0465 17.3783 19.2256 18.1485 19.262C18.8832 19.2954 20.0261 19.1496 20.947 18.264C22.0356 17.0473 22.3557 15.9781 21.887 14.31C21.6202 13.4946 20.8738 12.726 20.1674 12.4109C19.4556 12.0755 18.8554 12.0245 18.3527 12.0174C18.2153 12.0169 18.096 12.0212 17.9715 12.0293C17.6766 12.0484 17.4677 12.6731 17.4881 13.8638Z" fill="#1174BD"/>
</g>
</g>
</g>
<g id="Frame 2087327814">
<foreignObject x="4.92136" y="13.3471" width="16.8545" height="8.42778"><div xmlns="http://www.w3.org/1999/xhtml" style="backdrop-filter:blur(1.4px);clip-path:url(#bgblur_4_1488_8227_clip_path);height:100%;width:100%"></div></foreignObject><g id="Frame 2087328339_2" filter="url(#filter6_i_1488_8227)" data-figma-bg-blur-radius="2.8091">
<g clip-path="url(#clip3_1488_8227)">
<rect x="18.9668" y="16.1562" width="2.8091" height="11.2364" rx="1.40455" transform="rotate(90 18.9668 16.1562)" fill="black"/>
<g id="Rectangle 427320417_2" filter="url(#filter7_iin_1488_8227)">
<path d="M18.2645 16.1553C18.6524 16.1553 18.9668 16.4697 18.9668 16.8576L18.9668 18.2621C18.9668 18.65 18.6524 18.9644 18.2645 18.9644L8.43266 18.9644C8.0448 18.9644 7.73038 18.6499 7.73038 18.2621L7.73038 16.8576C7.73038 16.4697 8.0448 16.1553 8.43266 16.1553L18.2645 16.1553Z" fill="url(#paint3_linear_1488_8227)" fill-opacity="0.03"/>
</g>
<g id="Vector 49_2" filter="url(#filter8_fn_1488_8227)">
<path d="M10.3711 17.2844C10.4419 17.2177 10.4999 17.1614 10.54 17.122C10.5809 17.082 10.6064 17.0575 10.6351 17.0354C10.6638 17.0133 10.6939 16.9949 10.743 16.9655C10.7913 16.9368 10.8605 16.895 10.943 16.8434C10.943 16.8434 10.943 16.8434 10.943 16.8434C11.6055 16.421 11.9054 16.1662 11.9067 16.1678C11.9076 16.1688 11.9066 16.1677 11.902 16.1638C11.883 16.153 11.8249 16.0811 11.5858 16.0173C11.3531 15.942 10.9085 16.0237 10.7169 16.1839C10.513 16.3366 10.4687 16.4511 10.4356 16.5332C10.4091 16.6236 10.3867 16.6738 10.4066 16.8908C10.4433 17.177 10.6204 17.3368 10.649 17.3349C10.6882 17.3435 10.6424 17.2826 10.5649 17.2276C10.3386 17.0614 9.89576 16.9005 9.5537 16.8247C9.3631 16.7283 8.787 16.8156 8.30499 16.9301C8.2066 16.9523 8.0965 16.983 8.01305 17.0006C7.76458 16.6038 7.5161 16.207 7.26763 15.8102C7.37366 15.7112 7.4581 15.6317 7.5552 15.5477C8.04769 15.148 8.49977 14.7453 9.41874 14.5541C10.1748 14.4258 10.8468 14.44 11.6389 14.6919C11.9214 14.7903 12.2239 14.9201 12.5573 15.1887C12.8779 15.4433 13.2901 15.9527 13.3579 16.6342C13.3813 17.5286 13.2276 18.0378 12.4405 18.687C12.0394 18.9961 11.3203 19.1265 10.8394 18.9847C10.3505 18.8572 10.0746 18.6385 9.86433 18.4585C9.80804 18.4085 9.76332 18.3655 9.71667 18.3181C9.60757 18.2072 9.80751 17.835 10.3711 17.2844Z" fill="#53A9E8"/>
</g>
<g id="Vector 48_2" filter="url(#filter9_fn_1488_8227)">
<path d="M3.44317 16.1333C3.44875 16.2782 3.45093 16.4003 3.45164 16.4856C3.45265 16.5725 3.45419 16.6265 3.4644 16.6805C3.47461 16.7346 3.49286 16.7854 3.52361 16.8667C3.55405 16.9463 3.59656 17.0609 3.64419 17.1978C3.64419 17.1978 3.64419 17.1978 3.64419 17.1978C4.02596 18.3204 4.16379 18.8974 4.22742 18.8927C4.25513 18.8909 4.27689 18.8902 4.29489 18.8901C4.3619 18.8856 4.33828 18.9127 4.14596 18.8234C3.95741 18.7483 3.63521 18.422 3.55979 18.1474C3.47287 17.8732 3.51427 17.7498 3.53566 17.683C3.57273 17.6101 3.55845 17.5847 3.76628 17.3769C3.89336 17.261 4.05131 17.1978 4.12026 17.1901C4.19317 17.1801 4.18844 17.2027 4.13443 17.2141C4.02328 17.2413 3.75024 17.2263 3.45807 17.1641C2.58928 16.9816 1.51948 16.4993 0.69428 15.9553C0.0337176 15.5559 -0.765359 14.5327 -1.42196 13.5581C-1.55405 13.3629 -1.69122 13.1464 -1.80599 12.968C-2.46335 13.2151 -3.12072 13.4622 -3.77809 13.7093C-3.71123 14.0033 -3.64933 14.2544 -3.57554 14.5207C-3.17782 15.8397 -2.78944 17.1286 -1.60427 18.4852C-0.525341 19.6332 0.64072 20.4889 2.19212 21.1114C2.73743 21.316 3.33337 21.4952 4.10355 21.5315C4.83831 21.5649 5.98113 21.4192 6.90205 20.5335C7.99068 19.3168 8.31078 18.2477 7.84205 16.5795C7.57532 15.7641 6.82888 14.9955 6.12248 14.6805C5.41065 14.345 4.81045 14.294 4.30777 14.2869C4.17041 14.2865 4.05111 14.2908 3.92656 14.2988C3.63165 14.3179 3.4228 14.9427 3.44317 16.1333Z" fill="#1174BD"/>
</g>
</g>
</g>
<foreignObject x="17.0229" y="14.7514" width="11.9385" height="7.0225"><div xmlns="http://www.w3.org/1999/xhtml" style="backdrop-filter:blur(1.4px);clip-path:url(#bgblur_6_1488_8227_clip_path);height:100%;width:100%"></div></foreignObject><g id="Frame 2087328340" filter="url(#filter10_i_1488_8227)" data-figma-bg-blur-radius="2.8091">
<g clip-path="url(#clip5_1488_8227)">
<rect x="26.1523" y="17.5605" width="1.40455" height="6.32048" rx="0.702276" transform="rotate(90 26.1523 17.5605)" fill="black"/>
<g id="Rectangle 427320417_3" filter="url(#filter11_iin_1488_8227)">
<path d="M27.5575 16.8574C27.9453 16.8574 28.2598 17.1719 28.2598 17.5597L28.2598 18.9642C28.2598 19.3521 27.9453 19.6665 27.5575 19.6665L17.7256 19.6665C17.3378 19.6665 17.0233 19.3521 17.0233 18.9642L17.0233 17.5597C17.0233 17.1718 17.3378 16.8574 17.7256 16.8574L27.5575 16.8574Z" fill="url(#paint4_linear_1488_8227)" fill-opacity="0.03"/>
</g>
<g id="Vector 49_3" filter="url(#filter12_fn_1488_8227)">
<path d="M17.5566 18.6906C17.6274 18.624 17.6855 18.5677 17.7255 18.5283C17.7664 18.4882 17.7919 18.4638 17.8206 18.4417C17.8493 18.4196 17.8794 18.4011 17.9286 18.3718C17.9768 18.3431 18.0461 18.3012 18.1285 18.2497C18.1285 18.2497 18.1285 18.2497 18.1285 18.2497C18.7911 17.8272 19.091 17.5724 19.0922 17.5741C19.0931 17.575 19.0921 17.574 19.0875 17.5701C19.0686 17.5592 19.0104 17.4873 18.7713 17.4235C18.5387 17.3483 18.0941 17.4299 17.9024 17.5902C17.6986 17.7429 17.6543 17.8574 17.6211 17.9395C17.5946 18.0299 17.5722 18.0801 17.5922 18.297C17.6289 18.5833 17.806 18.7431 17.8346 18.7411C17.8737 18.7497 17.828 18.6888 17.7504 18.6339C17.5241 18.4677 17.0813 18.3067 16.7392 18.2309C16.5486 18.1346 15.9725 18.2219 15.4905 18.3363C15.3921 18.3586 15.2821 18.3893 15.1986 18.4069C14.9501 18.0101 14.7017 17.6133 14.4532 17.2165C14.5592 17.1175 14.6436 17.0379 14.7407 16.9539C15.2332 16.5542 15.6853 16.1515 16.6043 15.9604C17.3604 15.832 18.0324 15.8463 18.8245 16.0982C19.107 16.1965 19.4095 16.3263 19.7428 16.5949C20.0635 16.8495 20.4756 17.3589 20.5434 18.0404C20.5669 18.9348 20.4132 19.444 19.6261 20.0933C19.225 20.4024 18.5058 20.5328 18.0249 20.391C17.5361 20.2634 17.2602 20.0448 17.0499 19.8647C16.9936 19.8148 16.9489 19.7718 16.9022 19.7244C16.7931 19.6135 16.9931 19.2413 17.5566 18.6906Z" fill="#53A9E8"/>
</g>
</g>
</g>
</g>
</g>
<g id="_Chart data" clip-path="url(#clip7_1488_8227)">
<path id="Vector 432" d="M-1.74937 32.355L-10.5293 35.8704L79.2088 35.4153C81.1802 35.4053 82.7731 33.7801 82.7731 31.8087C82.7731 29.6823 80.9104 28.0094 78.8002 28.2715L70.6137 28.6544H67.4884C67.0046 28.6544 66.5219 28.6098 66.0463 28.5212C64.7767 28.2847 63.4684 28.3641 62.2367 28.7524L60.9825 29.1478L59.4282 29.5292C57.1274 30.0937 54.7128 29.9834 52.4731 29.2115L51.7889 28.9757C50.239 28.4416 48.8525 27.5179 47.7626 26.2933L46.7281 25.1312C45.01 23.201 42.3657 22.3785 39.8559 22.9936L39.0134 23.2001C37.9623 23.4577 36.854 23.3363 35.8837 22.8571L35.8441 22.8375C34.7521 22.2983 33.4879 22.2254 32.3412 22.6357C31.8555 22.8095 31.3436 22.8983 30.8277 22.8983H26.8202C26.0826 22.8983 25.3489 22.7924 24.6415 22.5837C22.0208 21.8108 19.1868 22.4842 17.194 24.3535L14.6695 26.7216C12.5336 28.7251 9.81366 29.9941 6.9061 30.3435L6.48674 30.3939L1.13435 31.49C0.149227 31.6917 -0.815858 31.9812 -1.74937 32.355Z" fill="url(#paint5_linear_1488_8227)"/>
<path id="Vector 433" d="M17.3154 24.4814C19.2627 22.6549 22.032 21.9968 24.5928 22.752C25.3162 22.9653 26.067 23.0742 26.8213 23.0742H30.8291C31.365 23.0742 31.8968 22.9813 32.4014 22.8008C33.5033 22.4065 34.7183 22.4769 35.7676 22.9951L35.8096 23.0156C36.8156 23.5124 37.9645 23.6394 39.0547 23.374L40.1973 23.0957C43.1523 22.3765 46.2404 23.5985 47.9023 26.1455C48.8164 27.5464 50.1706 28.6034 51.752 29.1484L52.8555 29.5283C54.8407 30.2125 56.9812 30.3109 59.0205 29.8105L61.0254 29.3184L61.0361 29.3154L62.291 28.9199C63.4952 28.5403 64.7744 28.4621 66.0156 28.6934C66.5016 28.7839 66.9949 28.8301 67.4893 28.8301H70.623L78.8096 28.4473L78.8232 28.4453C80.8271 28.1965 82.5986 29.7815 82.5986 31.8037C82.5986 33.6818 81.0758 35.2217 79.2002 35.2217H-3.03125C-5.22224 35.2217 -7.39304 35.6444 -9.42383 36.4668L-13.5674 38.1445L-2.78516 32.7344C-1.13498 31.9063 0.641881 31.3576 2.47168 31.1113L6.51074 30.5674L6.92871 30.5176C9.87327 30.1636 12.6279 28.8786 14.791 26.8496L17.3154 24.4814Z" stroke="#53A9E8" stroke-width="0.351138"/>
<g id="Vector 435" filter="url(#filter13_fn_1488_8227)">
<path d="M31.7309 31.0221C31.6487 30.9746 31.5759 30.9348 31.5239 30.9072C31.4712 30.8788 31.4384 30.8598 31.4111 30.8334C31.3838 30.807 31.3637 30.7748 31.3336 30.7231C31.3043 30.6721 31.2621 30.6006 31.2119 30.52C31.2119 30.52 31.2119 30.52 31.2119 30.52C30.7869 29.8337 30.5841 29.471 30.665 29.3693C30.7018 29.3229 30.7327 29.2813 30.7595 29.2433C30.8962 29.0873 30.8659 28.8947 30.8606 29.2655C30.8662 29.453 31.0283 29.7318 31.1367 29.8068C31.2448 29.8937 31.2634 29.8774 31.227 29.8664C31.0516 29.7835 30.3708 29.7982 30.0653 29.9081C29.5724 30.0617 29.1988 30.4606 28.9851 31.215C28.7481 32.0635 28.8073 33.1788 29.1378 34.0507C29.4256 34.8212 30.527 35.8025 31.5304 36.5657C31.7453 36.7287 31.9751 36.8946 32.1816 37.0375C31.9642 37.4522 31.7467 37.8668 31.5293 38.2815C31.2401 38.1595 30.9802 38.0399 30.711 37.908C29.4489 37.2313 28.1669 36.6697 27.1179 35.0503C26.3835 33.6997 26.1076 32.2411 26.3455 30.6699C26.524 29.3523 27.4677 27.7417 29.0142 27.163C30.0573 26.792 30.8853 26.6669 32.1016 26.9621C32.4092 27.0553 32.7633 27.1897 33.1441 27.5139C33.5267 27.8235 33.8723 28.4406 33.9062 28.9883C33.9518 30.0896 33.5435 30.5644 33.2752 31.0007C33.2098 31.0945 33.1426 31.1844 33.0704 31.2756C32.9097 31.4784 32.4429 31.4115 31.7309 31.0221Z" fill="#53A9E8"/>
</g>
<g id="Vector 438" filter="url(#filter14_f_1488_8227)">
<path d="M20.5055 36.8598C20.5002 36.8123 20.495 36.7669 20.4946 36.728C20.4944 36.6888 20.5002 36.6571 20.5167 36.6306C20.5331 36.6042 20.5589 36.5848 20.5942 36.5677C20.6293 36.5508 20.6723 36.5353 20.7171 36.519C20.7171 36.519 20.7171 36.519 20.7171 36.519C21.2454 36.335 21.6112 36.2873 21.8917 36.4177C22.0092 36.4721 22.123 36.5207 22.2425 36.5668C23.1091 36.9095 23.9697 36.9308 24.49 36.498C25.0326 36.1033 25.3048 35.0948 25.0795 34.5255C24.7327 33.5668 22.9461 33.0562 21.4149 32.912C18.9977 32.6855 16.4492 32.9325 14.0706 33.5592C11.82 34.214 9.68503 35.5978 7.68997 37.0377C7.29816 37.3253 6.90325 37.6252 6.53134 37.9263C6.35959 37.731 6.18783 37.5357 6.01608 37.3404C6.39125 36.9941 6.76738 36.6699 7.15171 36.3495C9.11459 34.752 11.1712 33.2152 13.7077 32.3424C16.2433 31.5578 18.8654 31.2013 21.5512 31.3747C23.2359 31.5894 25.4358 31.6507 26.6126 33.9125C27.124 35.3821 26.6835 36.8407 25.5489 37.8149C24.3437 38.8021 22.726 38.5967 21.6308 38.1581C21.4718 38.097 21.3244 38.034 21.1751 37.965C20.8173 37.7991 20.586 37.4214 20.5055 36.8598Z" fill="#53A9E8"/>
</g>
<g id="Vector 434" filter="url(#filter15_fn_1488_8227)">
<path d="M30.2282 29.156C30.1498 29.1009 30.0815 29.0553 30.0331 29.0237C29.9839 28.9913 29.9535 28.9703 29.9279 28.9432C29.9022 28.9162 29.8828 28.8848 29.853 28.834C29.8241 28.784 29.7821 28.7133 29.7312 28.6321C29.7312 28.6321 29.7312 28.6321 29.7312 28.6321C29.3077 27.9552 29.0973 27.6086 29.1598 27.5372C29.1885 27.5044 29.2127 27.4749 29.2323 27.4499C29.2791 27.391 29.3045 27.3455 29.3003 27.3548C29.3014 27.3654 29.2403 27.4449 29.2567 27.7141C29.2633 27.9883 29.4992 28.3357 29.6307 28.4137C29.7657 28.5108 29.7964 28.4985 29.7802 28.4945C29.6822 28.4399 29.1318 28.448 28.9137 28.5179C28.552 28.6203 28.293 28.8282 28.0954 29.3613C27.8874 29.9338 27.8908 30.7611 28.1028 31.3788C28.243 31.8836 29.1415 32.7102 29.9332 33.3117C30.1046 33.443 30.2902 33.5777 30.4516 33.692C30.2426 34.111 30.0335 34.5299 29.8245 34.9488C29.5815 34.8575 29.3667 34.7697 29.1417 34.6706C28.0924 34.1513 27.0355 33.7883 26.0865 32.3786C25.4579 31.2465 25.2467 30.028 25.491 28.7127C25.6826 27.5576 26.611 26.2144 27.9211 25.7557C28.8202 25.451 29.4991 25.3437 30.5563 25.5635C30.8254 25.6357 31.1378 25.7342 31.507 26.0131C31.8731 26.2689 32.278 26.8907 32.3042 27.4617C32.3234 28.5933 31.8991 28.9565 31.6568 29.3312C31.5981 29.4071 31.5361 29.4821 31.4715 29.5561C31.3287 29.7198 30.8939 29.603 30.2282 29.156Z" fill="url(#paint6_linear_1488_8227)"/>
</g>
</g>
</g>
</g>
</g>
</g>
<defs>
<filter id="filter0_in_1488_8227" x="3.1909" y="9.34519" width="37.6182" height="26.9258" filterUnits="userSpaceOnUse" color-interpolation-filters="sRGB">
<feFlood flood-opacity="0" result="BackgroundImageFix"/>
<feBlend mode="normal" in="SourceGraphic" in2="BackgroundImageFix" result="shape"/>
<feColorMatrix in="SourceAlpha" type="matrix" values="0 0 0 0 0 0 0 0 0 0 0 0 0 0 0 0 0 0 127 0" result="hardAlpha"/>
<feOffset dy="4.91593"/>
<feGaussianBlur stdDeviation="2.21217"/>
<feComposite in2="hardAlpha" operator="arithmetic" k2="-1" k3="1"/>
<feColorMatrix type="matrix" values="0 0 0 0 0.32549 0 0 0 0 0.662745 0 0 0 0 0.909804 0 0 0 0.25 0"/>
<feBlend mode="normal" in2="shape" result="effect1_innerShadow_1488_8227"/>
<feTurbulence type="fractalNoise" baseFrequency="inf inf" stitchTiles="stitch" numOctaves="3" result="noise" seed="9475" />
<feColorMatrix in="noise" type="luminanceToAlpha" result="alphaNoise" />
<feComponentTransfer in="alphaNoise" result="coloredNoise1">
<feFuncA type="discrete" tableValues="0 0 0 0 0 0 0 0 0 0 0 0 1 1 1 1 1 1 1 1 1 1 1 1 1 1 1 1 1 1 1 1 1 1 1 1 1 1 0 0 0 0 0 0 0 0 0 0 0 0 0 0 0 0 0 0 0 0 0 0 0 0 0 0 0 0 0 0 0 0 0 0 0 0 0 0 0 0 0 0 0 0 0 0 0 0 0 0 0 0 0 0 0 0 0 0 0 0 0 0 "/>
</feComponentTransfer>
<feComposite operator="in" in2="effect1_innerShadow_1488_8227" in="coloredNoise1" result="noise1Clipped" />
<feFlood flood-color="rgba(0, 0, 0, 0.25)" result="color1Flood" />
<feComposite operator="in" in2="noise1Clipped" in="color1Flood" result="color1" />
<feMerge result="effect2_noise_1488_8227">
<feMergeNode in="effect1_innerShadow_1488_8227" />
<feMergeNode in="color1" />
</feMerge>
</filter>
<clipPath id="bgblur_0_1488_8227_clip_path" transform="translate(-3.1909 -9.34519)"><rect x="6" y="12.1543" width="32" height="19.6923" rx="0.510746"/>
</clipPath><filter id="filter1_i_1488_8227" x="4.92136" y="11.0766" width="30.8995" height="7.0225" filterUnits="userSpaceOnUse" color-interpolation-filters="sRGB">
<feFlood flood-opacity="0" result="BackgroundImageFix"/>
<feBlend mode="normal" in="SourceGraphic" in2="BackgroundImageFix" result="shape"/>
<feColorMatrix in="SourceAlpha" type="matrix" values="0 0 0 0 0 0 0 0 0 0 0 0 0 0 0 0 0 0 127 0" result="hardAlpha"/>
<feOffset dx="-0.702276"/>
<feGaussianBlur stdDeviation="0.877845"/>
<feComposite in2="hardAlpha" operator="arithmetic" k2="-1" k3="1"/>
<feColorMatrix type="matrix" values="0 0 0 0 0.32549 0 0 0 0 0.662745 0 0 0 0 0.909804 0 0 0 1 0"/>
<feBlend mode="normal" in2="shape" result="effect1_innerShadow_1488_8227"/>
</filter>
<clipPath id="bgblur_2_1488_8227_clip_path" transform="translate(-4.92136 -11.0766)"><rect x="33.0117" y="13.8857" width="1.40455" height="25.2819" rx="0.702277" transform="rotate(90 33.0117 13.8857)"/>
</clipPath><filter id="filter2_iin_1488_8227" x="7.73047" y="13.8857" width="25.2812" height="4.91568" filterUnits="userSpaceOnUse" color-interpolation-filters="sRGB">
<feFlood flood-opacity="0" result="BackgroundImageFix"/>
<feBlend mode="normal" in="SourceGraphic" in2="BackgroundImageFix" result="shape"/>
<feColorMatrix in="SourceAlpha" type="matrix" values="0 0 0 0 0 0 0 0 0 0 0 0 0 0 0 0 0 0 127 0" result="hardAlpha"/>
<feOffset dy="3.51138"/>
<feGaussianBlur stdDeviation="5.07043"/>
<feComposite in2="hardAlpha" operator="arithmetic" k2="-1" k3="1"/>
<feColorMatrix type="matrix" values="0 0 0 0 0.0666 0 0 0 0 0.455813 0 0 0 0 0.74 0 0 0 1 0"/>
<feBlend mode="normal" in2="shape" result="effect1_innerShadow_1488_8227"/>
<feColorMatrix in="SourceAlpha" type="matrix" values="0 0 0 0 0 0 0 0 0 0 0 0 0 0 0 0 0 0 127 0" result="hardAlpha"/>
<feOffset dy="3.51138"/>
<feGaussianBlur stdDeviation="3.51138"/>
<feComposite in2="hardAlpha" operator="arithmetic" k2="-1" k3="1"/>
<feColorMatrix type="matrix" values="0 0 0 0 0.829834 0 0 0 0 0.829834 0 0 0 0 0.829834 0 0 0 1 0"/>
<feBlend mode="normal" in2="effect1_innerShadow_1488_8227" result="effect2_innerShadow_1488_8227"/>
<feTurbulence type="fractalNoise" baseFrequency="inf inf" stitchTiles="stitch" numOctaves="3" result="noise" seed="9475" />
<feColorMatrix in="noise" type="luminanceToAlpha" result="alphaNoise" />
<feComponentTransfer in="alphaNoise" result="coloredNoise1">
<feFuncA type="discrete" tableValues="0 0 0 0 0 0 0 0 0 0 0 0 1 1 1 1 1 1 1 1 1 1 1 1 1 1 1 1 1 1 1 1 1 1 1 1 1 1 0 0 0 0 0 0 0 0 0 0 0 0 0 0 0 0 0 0 0 0 0 0 0 0 0 0 0 0 0 0 0 0 0 0 0 0 0 0 0 0 0 0 0 0 0 0 0 0 0 0 0 0 0 0 0 0 0 0 0 0 0 0 "/>
</feComponentTransfer>
<feComposite operator="in" in2="effect2_innerShadow_1488_8227" in="coloredNoise1" result="noise1Clipped" />
<feFlood flood-color="rgba(0, 0, 0, 0.25)" result="color1Flood" />
<feComposite operator="in" in2="noise1Clipped" in="color1Flood" result="color1" />
<feMerge result="effect3_noise_1488_8227">
<feMergeNode in="effect2_innerShadow_1488_8227" />
<feMergeNode in="color1" />
</feMerge>
</filter>
<filter id="filter3_f_1488_8227" x="6.16986" y="12.3251" width="7.30091" height="5.22767" filterUnits="userSpaceOnUse" color-interpolation-filters="sRGB">
<feFlood flood-opacity="0" result="BackgroundImageFix"/>
<feBlend mode="normal" in="SourceGraphic" in2="BackgroundImageFix" result="shape"/>
<feGaussianBlur stdDeviation="0.780307" result="effect1_foregroundBlur_1488_8227"/>
</filter>
<filter id="filter4_fn_1488_8227" x="19.2057" y="10.0983" width="10.3055" height="8.78104" filterUnits="userSpaceOnUse" color-interpolation-filters="sRGB">
<feFlood flood-opacity="0" result="BackgroundImageFix"/>
<feBlend mode="normal" in="SourceGraphic" in2="BackgroundImageFix" result="shape"/>
<feGaussianBlur stdDeviation="1.05341" result="effect1_foregroundBlur_1488_8227"/>
<feTurbulence type="fractalNoise" baseFrequency="1281.54736328125 1281.54736328125" stitchTiles="stitch" numOctaves="3" result="noise" seed="1902" />
<feColorMatrix in="noise" type="luminanceToAlpha" result="alphaNoise" />
<feComponentTransfer in="alphaNoise" result="coloredNoise1">
<feFuncA type="discrete" tableValues="1 1 1 1 1 1 1 1 1 1 1 1 1 1 1 1 1 1 1 1 1 1 1 1 1 1 1 1 1 1 1 1 1 1 1 1 1 1 1 1 1 1 1 1 1 1 1 1 1 1 1 0 0 0 0 0 0 0 0 0 0 0 0 0 0 0 0 0 0 0 0 0 0 0 0 0 0 0 0 0 0 0 0 0 0 0 0 0 0 0 0 0 0 0 0 0 0 0 0 0 "/>
</feComponentTransfer>
<feComposite operator="in" in2="effect1_foregroundBlur_1488_8227" in="coloredNoise1" result="noise1Clipped" />
<feFlood flood-color="rgba(0, 0, 0, 0.25)" result="color1Flood" />
<feComposite operator="in" in2="noise1Clipped" in="color1Flood" result="color1" />
<feMerge result="effect2_noise_1488_8227">
<feMergeNode in="effect1_foregroundBlur_1488_8227" />
<feMergeNode in="color1" />
</feMerge>
</filter>
<filter id="filter5_fn_1488_8227" x="7.45847" y="7.88914" width="17.4463" height="14.1866" filterUnits="userSpaceOnUse" color-interpolation-filters="sRGB">
<feFlood flood-opacity="0" result="BackgroundImageFix"/>
<feBlend mode="normal" in="SourceGraphic" in2="BackgroundImageFix" result="shape"/>
<feGaussianBlur stdDeviation="1.40455" result="effect1_foregroundBlur_1488_8227"/>
<feTurbulence type="fractalNoise" baseFrequency="3733.176513671875 3733.176513671875" stitchTiles="stitch" numOctaves="3" result="noise" seed="1902" />
<feColorMatrix in="noise" type="luminanceToAlpha" result="alphaNoise" />
<feComponentTransfer in="alphaNoise" result="coloredNoise1">
<feFuncA type="discrete" tableValues="1 1 1 1 1 1 1 1 1 1 1 1 1 1 1 1 1 1 1 1 1 1 1 1 1 1 1 1 1 1 1 1 1 1 1 1 1 1 1 1 1 1 1 1 1 1 1 1 1 1 1 0 0 0 0 0 0 0 0 0 0 0 0 0 0 0 0 0 0 0 0 0 0 0 0 0 0 0 0 0 0 0 0 0 0 0 0 0 0 0 0 0 0 0 0 0 0 0 0 0 "/>
</feComponentTransfer>
<feComposite operator="in" in2="effect1_foregroundBlur_1488_8227" in="coloredNoise1" result="noise1Clipped" />
<feFlood flood-color="rgba(0, 0, 0, 0.25)" result="color1Flood" />
<feComposite operator="in" in2="noise1Clipped" in="color1Flood" result="color1" />
<feMerge result="effect2_noise_1488_8227">
<feMergeNode in="effect1_foregroundBlur_1488_8227" />
<feMergeNode in="color1" />
</feMerge>
</filter>
<filter id="filter6_i_1488_8227" x="4.92136" y="13.3471" width="16.8545" height="8.42778" filterUnits="userSpaceOnUse" color-interpolation-filters="sRGB">
<feFlood flood-opacity="0" result="BackgroundImageFix"/>
<feBlend mode="normal" in="SourceGraphic" in2="BackgroundImageFix" result="shape"/>
<feColorMatrix in="SourceAlpha" type="matrix" values="0 0 0 0 0 0 0 0 0 0 0 0 0 0 0 0 0 0 127 0" result="hardAlpha"/>
<feOffset dx="-0.702276"/>
<feGaussianBlur stdDeviation="0.877845"/>
<feComposite in2="hardAlpha" operator="arithmetic" k2="-1" k3="1"/>
<feColorMatrix type="matrix" values="0 0 0 0 0.32549 0 0 0 0 0.662745 0 0 0 0 0.909804 0 0 0 1 0"/>
<feBlend mode="normal" in2="shape" result="effect1_innerShadow_1488_8227"/>
</filter>
<clipPath id="bgblur_4_1488_8227_clip_path" transform="translate(-4.92136 -13.3471)"><rect x="18.9668" y="16.1562" width="2.8091" height="11.2364" rx="1.40455" transform="rotate(90 18.9668 16.1562)"/>
</clipPath><filter id="filter7_iin_1488_8227" x="7.73047" y="16.1553" width="11.2363" height="6.32095" filterUnits="userSpaceOnUse" color-interpolation-filters="sRGB">
<feFlood flood-opacity="0" result="BackgroundImageFix"/>
<feBlend mode="normal" in="SourceGraphic" in2="BackgroundImageFix" result="shape"/>
<feColorMatrix in="SourceAlpha" type="matrix" values="0 0 0 0 0 0 0 0 0 0 0 0 0 0 0 0 0 0 127 0" result="hardAlpha"/>
<feOffset dy="3.51138"/>
<feGaussianBlur stdDeviation="5.07043"/>
<feComposite in2="hardAlpha" operator="arithmetic" k2="-1" k3="1"/>
<feColorMatrix type="matrix" values="0 0 0 0 0.0666 0 0 0 0 0.455813 0 0 0 0 0.74 0 0 0 1 0"/>
<feBlend mode="normal" in2="shape" result="effect1_innerShadow_1488_8227"/>
<feColorMatrix in="SourceAlpha" type="matrix" values="0 0 0 0 0 0 0 0 0 0 0 0 0 0 0 0 0 0 127 0" result="hardAlpha"/>
<feOffset dy="3.51138"/>
<feGaussianBlur stdDeviation="3.51138"/>
<feComposite in2="hardAlpha" operator="arithmetic" k2="-1" k3="1"/>
<feColorMatrix type="matrix" values="0 0 0 0 0.829834 0 0 0 0 0.829834 0 0 0 0 0.829834 0 0 0 1 0"/>
<feBlend mode="normal" in2="effect1_innerShadow_1488_8227" result="effect2_innerShadow_1488_8227"/>
<feTurbulence type="fractalNoise" baseFrequency="inf inf" stitchTiles="stitch" numOctaves="3" result="noise" seed="9475" />
<feColorMatrix in="noise" type="luminanceToAlpha" result="alphaNoise" />
<feComponentTransfer in="alphaNoise" result="coloredNoise1">
<feFuncA type="discrete" tableValues="0 0 0 0 0 0 0 0 0 0 0 0 1 1 1 1 1 1 1 1 1 1 1 1 1 1 1 1 1 1 1 1 1 1 1 1 1 1 0 0 0 0 0 0 0 0 0 0 0 0 0 0 0 0 0 0 0 0 0 0 0 0 0 0 0 0 0 0 0 0 0 0 0 0 0 0 0 0 0 0 0 0 0 0 0 0 0 0 0 0 0 0 0 0 0 0 0 0 0 0 "/>
</feComponentTransfer>
<feComposite operator="in" in2="effect2_innerShadow_1488_8227" in="coloredNoise1" result="noise1Clipped" />
<feFlood flood-color="rgba(0, 0, 0, 0.25)" result="color1Flood" />
<feComposite operator="in" in2="noise1Clipped" in="color1Flood" result="color1" />
<feMerge result="effect3_noise_1488_8227">
<feMergeNode in="effect2_innerShadow_1488_8227" />
<feMergeNode in="color1" />
</feMerge>
</filter>
<filter id="filter8_fn_1488_8227" x="5.16075" y="12.3678" width="10.3055" height="8.78104" filterUnits="userSpaceOnUse" color-interpolation-filters="sRGB">
<feFlood flood-opacity="0" result="BackgroundImageFix"/>
<feBlend mode="normal" in="SourceGraphic" in2="BackgroundImageFix" result="shape"/>
<feGaussianBlur stdDeviation="1.05341" result="effect1_foregroundBlur_1488_8227"/>
<feTurbulence type="fractalNoise" baseFrequency="1281.54736328125 1281.54736328125" stitchTiles="stitch" numOctaves="3" result="noise" seed="1902" />
<feColorMatrix in="noise" type="luminanceToAlpha" result="alphaNoise" />
<feComponentTransfer in="alphaNoise" result="coloredNoise1">
<feFuncA type="discrete" tableValues="1 1 1 1 1 1 1 1 1 1 1 1 1 1 1 1 1 1 1 1 1 1 1 1 1 1 1 1 1 1 1 1 1 1 1 1 1 1 1 1 1 1 1 1 1 1 1 1 1 1 1 0 0 0 0 0 0 0 0 0 0 0 0 0 0 0 0 0 0 0 0 0 0 0 0 0 0 0 0 0 0 0 0 0 0 0 0 0 0 0 0 0 0 0 0 0 0 0 0 0 "/>
</feComponentTransfer>
<feComposite operator="in" in2="effect1_foregroundBlur_1488_8227" in="coloredNoise1" result="noise1Clipped" />
<feFlood flood-color="rgba(0, 0, 0, 0.25)" result="color1Flood" />
<feComposite operator="in" in2="noise1Clipped" in="color1Flood" result="color1" />
<feMerge result="effect2_noise_1488_8227">
<feMergeNode in="effect1_foregroundBlur_1488_8227" />
<feMergeNode in="color1" />
</feMerge>
</filter>
<filter id="filter9_fn_1488_8227" x="-6.58645" y="10.1587" width="17.4463" height="14.1866" filterUnits="userSpaceOnUse" color-interpolation-filters="sRGB">
<feFlood flood-opacity="0" result="BackgroundImageFix"/>
<feBlend mode="normal" in="SourceGraphic" in2="BackgroundImageFix" result="shape"/>
<feGaussianBlur stdDeviation="1.40455" result="effect1_foregroundBlur_1488_8227"/>
<feTurbulence type="fractalNoise" baseFrequency="3733.176513671875 3733.176513671875" stitchTiles="stitch" numOctaves="3" result="noise" seed="1902" />
<feColorMatrix in="noise" type="luminanceToAlpha" result="alphaNoise" />
<feComponentTransfer in="alphaNoise" result="coloredNoise1">
<feFuncA type="discrete" tableValues="1 1 1 1 1 1 1 1 1 1 1 1 1 1 1 1 1 1 1 1 1 1 1 1 1 1 1 1 1 1 1 1 1 1 1 1 1 1 1 1 1 1 1 1 1 1 1 1 1 1 1 0 0 0 0 0 0 0 0 0 0 0 0 0 0 0 0 0 0 0 0 0 0 0 0 0 0 0 0 0 0 0 0 0 0 0 0 0 0 0 0 0 0 0 0 0 0 0 0 0 "/>
</feComponentTransfer>
<feComposite operator="in" in2="effect1_foregroundBlur_1488_8227" in="coloredNoise1" result="noise1Clipped" />
<feFlood flood-color="rgba(0, 0, 0, 0.25)" result="color1Flood" />
<feComposite operator="in" in2="noise1Clipped" in="color1Flood" result="color1" />
<feMerge result="effect2_noise_1488_8227">
<feMergeNode in="effect1_foregroundBlur_1488_8227" />
<feMergeNode in="color1" />
</feMerge>
</filter>
<filter id="filter10_i_1488_8227" x="17.0229" y="14.7514" width="11.9385" height="7.0225" filterUnits="userSpaceOnUse" color-interpolation-filters="sRGB">
<feFlood flood-opacity="0" result="BackgroundImageFix"/>
<feBlend mode="normal" in="SourceGraphic" in2="BackgroundImageFix" result="shape"/>
<feColorMatrix in="SourceAlpha" type="matrix" values="0 0 0 0 0 0 0 0 0 0 0 0 0 0 0 0 0 0 127 0" result="hardAlpha"/>
<feOffset dx="-0.702276"/>
<feGaussianBlur stdDeviation="0.877845"/>
<feComposite in2="hardAlpha" operator="arithmetic" k2="-1" k3="1"/>
<feColorMatrix type="matrix" values="0 0 0 0 0.32549 0 0 0 0 0.662745 0 0 0 0 0.909804 0 0 0 1 0"/>
<feBlend mode="normal" in2="shape" result="effect1_innerShadow_1488_8227"/>
</filter>
<clipPath id="bgblur_6_1488_8227_clip_path" transform="translate(-17.0229 -14.7514)"><rect x="26.1523" y="17.5605" width="1.40455" height="6.32048" rx="0.702276" transform="rotate(90 26.1523 17.5605)"/>
</clipPath><filter id="filter11_iin_1488_8227" x="17.0234" y="16.8574" width="11.2363" height="6.32095" filterUnits="userSpaceOnUse" color-interpolation-filters="sRGB">
<feFlood flood-opacity="0" result="BackgroundImageFix"/>
<feBlend mode="normal" in="SourceGraphic" in2="BackgroundImageFix" result="shape"/>
<feColorMatrix in="SourceAlpha" type="matrix" values="0 0 0 0 0 0 0 0 0 0 0 0 0 0 0 0 0 0 127 0" result="hardAlpha"/>
<feOffset dy="3.51138"/>
<feGaussianBlur stdDeviation="5.07043"/>
<feComposite in2="hardAlpha" operator="arithmetic" k2="-1" k3="1"/>
<feColorMatrix type="matrix" values="0 0 0 0 0.0666 0 0 0 0 0.455813 0 0 0 0 0.74 0 0 0 1 0"/>
<feBlend mode="normal" in2="shape" result="effect1_innerShadow_1488_8227"/>
<feColorMatrix in="SourceAlpha" type="matrix" values="0 0 0 0 0 0 0 0 0 0 0 0 0 0 0 0 0 0 127 0" result="hardAlpha"/>
<feOffset dy="3.51138"/>
<feGaussianBlur stdDeviation="3.51138"/>
<feComposite in2="hardAlpha" operator="arithmetic" k2="-1" k3="1"/>
<feColorMatrix type="matrix" values="0 0 0 0 0.829834 0 0 0 0 0.829834 0 0 0 0 0.829834 0 0 0 1 0"/>
<feBlend mode="normal" in2="effect1_innerShadow_1488_8227" result="effect2_innerShadow_1488_8227"/>
<feTurbulence type="fractalNoise" baseFrequency="inf inf" stitchTiles="stitch" numOctaves="3" result="noise" seed="9475" />
<feColorMatrix in="noise" type="luminanceToAlpha" result="alphaNoise" />
<feComponentTransfer in="alphaNoise" result="coloredNoise1">
<feFuncA type="discrete" tableValues="0 0 0 0 0 0 0 0 0 0 0 0 1 1 1 1 1 1 1 1 1 1 1 1 1 1 1 1 1 1 1 1 1 1 1 1 1 1 0 0 0 0 0 0 0 0 0 0 0 0 0 0 0 0 0 0 0 0 0 0 0 0 0 0 0 0 0 0 0 0 0 0 0 0 0 0 0 0 0 0 0 0 0 0 0 0 0 0 0 0 0 0 0 0 0 0 0 0 0 0 "/>
</feComponentTransfer>
<feComposite operator="in" in2="effect2_innerShadow_1488_8227" in="coloredNoise1" result="noise1Clipped" />
<feFlood flood-color="rgba(0, 0, 0, 0.25)" result="color1Flood" />
<feComposite operator="in" in2="noise1Clipped" in="color1Flood" result="color1" />
<feMerge result="effect3_noise_1488_8227">
<feMergeNode in="effect2_innerShadow_1488_8227" />
<feMergeNode in="color1" />
</feMerge>
</filter>
<filter id="filter12_fn_1488_8227" x="12.3463" y="13.774" width="10.3055" height="8.78104" filterUnits="userSpaceOnUse" color-interpolation-filters="sRGB">
<feFlood flood-opacity="0" result="BackgroundImageFix"/>
<feBlend mode="normal" in="SourceGraphic" in2="BackgroundImageFix" result="shape"/>
<feGaussianBlur stdDeviation="1.05341" result="effect1_foregroundBlur_1488_8227"/>
<feTurbulence type="fractalNoise" baseFrequency="1281.54736328125 1281.54736328125" stitchTiles="stitch" numOctaves="3" result="noise" seed="1902" />
<feColorMatrix in="noise" type="luminanceToAlpha" result="alphaNoise" />
<feComponentTransfer in="alphaNoise" result="coloredNoise1">
<feFuncA type="discrete" tableValues="1 1 1 1 1 1 1 1 1 1 1 1 1 1 1 1 1 1 1 1 1 1 1 1 1 1 1 1 1 1 1 1 1 1 1 1 1 1 1 1 1 1 1 1 1 1 1 1 1 1 1 0 0 0 0 0 0 0 0 0 0 0 0 0 0 0 0 0 0 0 0 0 0 0 0 0 0 0 0 0 0 0 0 0 0 0 0 0 0 0 0 0 0 0 0 0 0 0 0 0 "/>
</feComponentTransfer>
<feComposite operator="in" in2="effect1_foregroundBlur_1488_8227" in="coloredNoise1" result="noise1Clipped" />
<feFlood flood-color="rgba(0, 0, 0, 0.25)" result="color1Flood" />
<feComposite operator="in" in2="noise1Clipped" in="color1Flood" result="color1" />
<feMerge result="effect2_noise_1488_8227">
<feMergeNode in="effect1_foregroundBlur_1488_8227" />
<feMergeNode in="color1" />
</feMerge>
</filter>
<filter id="filter13_fn_1488_8227" x="22.7503" y="23.2865" width="14.6712" height="18.5062" filterUnits="userSpaceOnUse" color-interpolation-filters="sRGB">
<feFlood flood-opacity="0" result="BackgroundImageFix"/>
<feBlend mode="normal" in="SourceGraphic" in2="BackgroundImageFix" result="shape"/>
<feGaussianBlur stdDeviation="1.75569" result="effect1_foregroundBlur_1488_8227"/>
<feTurbulence type="fractalNoise" baseFrequency="1281.54736328125 1281.54736328125" stitchTiles="stitch" numOctaves="3" result="noise" seed="1902" />
<feColorMatrix in="noise" type="luminanceToAlpha" result="alphaNoise" />
<feComponentTransfer in="alphaNoise" result="coloredNoise1">
<feFuncA type="discrete" tableValues="1 1 1 1 1 1 1 1 1 1 1 1 1 1 1 1 1 1 1 1 1 1 1 1 1 1 1 1 1 1 1 1 1 1 1 1 1 1 1 1 1 1 1 1 1 1 1 1 1 1 1 0 0 0 0 0 0 0 0 0 0 0 0 0 0 0 0 0 0 0 0 0 0 0 0 0 0 0 0 0 0 0 0 0 0 0 0 0 0 0 0 0 0 0 0 0 0 0 0 0 "/>
</feComponentTransfer>
<feComposite operator="in" in2="effect1_foregroundBlur_1488_8227" in="coloredNoise1" result="noise1Clipped" />
<feFlood flood-color="rgba(0, 0, 0, 0.25)" result="color1Flood" />
<feComposite operator="in" in2="noise1Clipped" in="color1Flood" result="color1" />
<feMerge result="effect2_noise_1488_8227">
<feMergeNode in="effect1_foregroundBlur_1488_8227" />
<feMergeNode in="color1" />
</feMerge>
</filter>
<filter id="filter14_f_1488_8227" x="2.8944" y="28.2108" width="27.051" height="13.4329" filterUnits="userSpaceOnUse" color-interpolation-filters="sRGB">
<feFlood flood-opacity="0" result="BackgroundImageFix"/>
<feBlend mode="normal" in="SourceGraphic" in2="BackgroundImageFix" result="shape"/>
<feGaussianBlur stdDeviation="1.56061" result="effect1_foregroundBlur_1488_8227"/>
</filter>
<filter id="filter15_fn_1488_8227" x="22.2714" y="22.326" width="13.1546" height="15.7444" filterUnits="userSpaceOnUse" color-interpolation-filters="sRGB">
<feFlood flood-opacity="0" result="BackgroundImageFix"/>
<feBlend mode="normal" in="SourceGraphic" in2="BackgroundImageFix" result="shape"/>
<feGaussianBlur stdDeviation="1.56061" result="effect1_foregroundBlur_1488_8227"/>
<feTurbulence type="fractalNoise" baseFrequency="1281.54736328125 1281.54736328125" stitchTiles="stitch" numOctaves="3" result="noise" seed="1902" />
<feColorMatrix in="noise" type="luminanceToAlpha" result="alphaNoise" />
<feComponentTransfer in="alphaNoise" result="coloredNoise1">
<feFuncA type="discrete" tableValues="1 1 1 1 1 1 1 1 1 1 1 1 1 1 1 1 1 1 1 1 1 1 1 1 1 1 1 1 1 1 1 1 1 1 1 1 1 1 1 1 1 1 1 1 1 1 1 1 1 1 1 0 0 0 0 0 0 0 0 0 0 0 0 0 0 0 0 0 0 0 0 0 0 0 0 0 0 0 0 0 0 0 0 0 0 0 0 0 0 0 0 0 0 0 0 0 0 0 0 0 "/>
</feComponentTransfer>
<feComposite operator="in" in2="effect1_foregroundBlur_1488_8227" in="coloredNoise1" result="noise1Clipped" />
<feFlood flood-color="rgba(0, 0, 0, 0.25)" result="color1Flood" />
<feComposite operator="in" in2="noise1Clipped" in="color1Flood" result="color1" />
<feMerge result="effect2_noise_1488_8227">
<feMergeNode in="effect1_foregroundBlur_1488_8227" />
<feMergeNode in="color1" />
</feMerge>
</filter>
<linearGradient id="paint0_linear_1488_8227" x1="22" y1="12.1543" x2="22" y2="31.8466" gradientUnits="userSpaceOnUse">
<stop stop-color="#1B374B"/>
<stop offset="1" stop-color="#31658B"/>
</linearGradient>
<linearGradient id="paint1_linear_1488_8227" x1="27.0082" y1="13.8857" x2="24.0954" y2="20.1266" gradientUnits="userSpaceOnUse">
<stop stop-color="white" stop-opacity="0.1"/>
<stop offset="1" stop-color="white" stop-opacity="0.1"/>
</linearGradient>
<linearGradient id="paint2_linear_1488_8227" x1="10.236" y1="9.90247" x2="11.0878" y2="19.096" gradientUnits="userSpaceOnUse">
<stop stop-color="#1174BD" stop-opacity="0"/>
<stop offset="1" stop-color="#1174BD"/>
</linearGradient>
<linearGradient id="paint3_linear_1488_8227" x1="16.2985" y1="16.1553" x2="10.3986" y2="18.9644" gradientUnits="userSpaceOnUse">
<stop stop-color="white" stop-opacity="0.1"/>
<stop offset="1" stop-color="white" stop-opacity="0.1"/>
</linearGradient>
<linearGradient id="paint4_linear_1488_8227" x1="25.5915" y1="16.8574" x2="19.6916" y2="19.6665" gradientUnits="userSpaceOnUse">
<stop stop-color="white" stop-opacity="0.1"/>
<stop offset="1" stop-color="white" stop-opacity="0.1"/>
</linearGradient>
<linearGradient id="paint5_linear_1488_8227" x1="21.8375" y1="33.7119" x2="21.8375" y2="22.4396" gradientUnits="userSpaceOnUse">
<stop stop-color="#1174BD" stop-opacity="0"/>
<stop offset="1" stop-color="#1174BD"/>
</linearGradient>
<linearGradient id="paint6_linear_1488_8227" x1="28.2696" y1="27.1575" x2="30.0139" y2="34.3505" gradientUnits="userSpaceOnUse">
<stop stop-color="#1174BD" stop-opacity="0"/>
<stop offset="1" stop-color="#1174BD"/>
</linearGradient>
<clipPath id="clip1_1488_8227">
<rect x="33.0117" y="13.8857" width="1.40455" height="25.2819" rx="0.702277" transform="rotate(90 33.0117 13.8857)" fill="white"/>
</clipPath>
<clipPath id="clip3_1488_8227">
<rect x="18.9668" y="16.1562" width="2.8091" height="11.2364" rx="1.40455" transform="rotate(90 18.9668 16.1562)" fill="white"/>
</clipPath>
<clipPath id="clip5_1488_8227">
<rect x="26.1523" y="17.5605" width="1.40455" height="6.32048" rx="0.702276" transform="rotate(90 26.1523 17.5605)" fill="white"/>
</clipPath>
<clipPath id="clip7_1488_8227">
<rect width="28.5376" height="8.42731" fill="white" transform="translate(7.73047 21.6885)"/>
</clipPath>
</defs>
</svg>
