<svg width="44" height="44" viewBox="0 0 44 44" fill="none" xmlns="http://www.w3.org/2000/svg">
<g id="Visualization Type - Charts">
<g id="Line chart">
<g id="Frame 2087328423">
<g id="Vector 807" filter="url(#filter0_ii_1488_8227)">
<path d="M8.2695 25.6366C12.7229 25.6366 13.5698 18.3621 18.0641 18.3623C22.5581 18.3625 21.8669 25.6366 26.3609 25.6366C30.855 25.6366 32.0745 18.3623 36.0003 18.3623" stroke="url(#paint0_linear_1488_8227)" stroke-width="1.51369" stroke-linecap="round"/>
</g>
<foreignObject x="5.09179" y="22.459" width="6.35744" height="6.87966"><div xmlns="http://www.w3.org/1999/xhtml" style="backdrop-filter:blur(0.45px);clip-path:url(#bgblur_1_1488_8227_clip_path);height:100%;width:100%"></div></foreignObject><g id="Frame 2087328323" filter="url(#filter1_i_1488_8227)" data-figma-bg-blur-radius="0.908211">
<g clip-path="url(#clip0_1488_8227)">
<rect x="6" y="23.3672" width="4.54107" height="4.54107" rx="2.27054" fill="url(#paint1_linear_1488_8227)" fill-opacity="0.1"/>
<g id="Ellipse 6791" filter="url(#filter2_iin_1488_8227)">
<circle cx="8.27053" cy="25.6367" r="2.27053" fill="white" fill-opacity="0.1"/>
</g>
<g id="Vector 47" filter="url(#filter3_fn_1488_8227)">
<path d="M9.51579 27.9489C9.59677 27.9601 9.6818 27.9499 9.75547 27.9114C9.82913 27.8728 9.88504 27.81 9.91177 27.7343C9.93851 27.6586 9.93442 27.5747 9.90129 27.4984C9.86818 27.4221 9.80837 27.3609 9.73833 27.3187C9.73833 27.3187 9.73833 27.3187 9.73833 27.3187C9.68646 27.286 9.64061 27.2537 9.598 27.2204C9.44342 27.1038 9.42425 27.0084 9.45259 26.9861C9.45305 26.9377 9.53318 26.7287 9.51038 26.3485C9.49964 26.2093 9.49264 26.0835 9.49702 25.9844C9.50553 25.8275 9.52108 25.7357 9.59445 25.5775C9.48111 25.6859 9.55228 25.5888 9.5975 25.5629C9.65107 25.5231 9.72008 25.4805 9.7916 25.438C9.93588 25.3529 10.0939 25.2656 10.2534 25.1749C10.3122 25.1415 10.373 25.1072 10.4293 25.074C10.4719 25.0503 10.511 25.0179 10.5364 24.9758C10.5619 24.9337 10.5716 24.8858 10.5631 24.84C10.5546 24.7942 10.5283 24.753 10.4894 24.7229C10.4505 24.6927 10.4024 24.6765 10.3541 24.6697C10.3541 24.6697 10.3541 24.6697 10.3541 24.6697C10.2801 24.6612 10.21 24.6545 10.1375 24.65C9.94254 24.638 9.74804 24.639 9.54602 24.663C9.44463 24.6755 9.34196 24.6931 9.22925 24.7262C9.11173 24.7752 9.00825 24.7563 8.78325 25.0086C8.57672 25.2391 8.42656 25.6171 8.42217 25.9395C8.41421 26.1431 8.43685 26.3198 8.46384 26.4811C8.49888 26.5502 8.43218 26.7936 8.52856 27.1914C8.64693 27.625 9.0374 27.8298 9.28287 27.8962C9.36299 27.92 9.43805 27.9358 9.51579 27.9489Z" fill="#1174BD"/>
</g>
<g id="Vector 49" filter="url(#filter4_fn_1488_8227)">
<path d="M7.96724 28.1529C8.00755 28.2463 8.07246 28.3308 8.16044 28.3854C8.24834 28.4399 8.3508 28.4603 8.44869 28.4413C8.54658 28.4223 8.63399 28.3651 8.69511 28.2816C8.7563 28.1981 8.78488 28.0955 8.78732 27.9937C8.78732 27.9937 8.78732 27.9937 8.78732 27.9937C8.79262 27.9299 8.79621 27.8496 8.80118 27.7759C8.83725 27.2052 8.90996 26.5136 9.04388 26.3077C9.05169 26.296 9.08 26.2546 9.11095 26.2163C9.44284 25.8402 9.78445 25.4556 10.3194 25.4159C10.3824 25.4134 10.4484 25.4163 10.5189 25.4262C10.5784 25.4381 10.6415 25.4396 10.6997 25.4211C10.7579 25.4027 10.8063 25.3663 10.8359 25.3169C10.8656 25.2674 10.875 25.2077 10.8639 25.1476C10.8529 25.0875 10.8219 25.0326 10.7834 24.9856C10.7834 24.9856 10.7834 24.9856 10.7834 24.9856C10.7176 24.9138 10.6444 24.8478 10.5609 24.7889C9.72397 24.2105 8.5947 24.6915 8.06029 25.377C7.99374 25.4612 7.93022 25.5484 7.86414 25.673C7.46761 26.6214 7.69555 27.2502 7.87829 27.907C7.90554 27.9894 7.93348 28.0648 7.96724 28.1529Z" fill="#1174BD"/>
</g>
<g id="Vector 48" filter="url(#filter5_fn_1488_8227)">
<path d="M10.1992 24.9579C10.1848 24.9535 10.1718 24.9493 10.1625 24.9462C10.153 24.9431 10.1469 24.9414 10.1405 24.9415C10.1342 24.9416 10.1281 24.9436 10.1188 24.947C10.1096 24.9505 10.0968 24.9552 10.0825 24.9601C10.0825 24.9601 10.0825 24.9601 10.0825 24.9601C9.95658 25.0016 9.89299 25.0388 9.8923 25.0791C9.89202 25.0948 9.89161 25.1131 9.8912 25.1288C9.8732 25.6165 9.82877 26.1929 9.60825 26.4905C9.32655 26.7687 8.74249 26.9347 8.2483 27.0743C8.19275 27.0892 8.13354 27.1043 8.08066 27.1173C8.09199 27.1921 8.10332 27.2669 8.11466 27.3418C8.17484 27.3371 8.23567 27.3308 8.29527 27.3241C8.84045 27.2389 9.38014 27.2198 9.92448 26.7894C10.3628 26.245 10.3474 25.6863 10.3871 25.1424C10.3876 25.1252 10.3881 25.1053 10.3884 25.0881C10.3891 25.0438 10.3263 25.0001 10.1992 24.9579Z" fill="#1174BD"/>
</g>
</g>
</g>
<foreignObject x="14.3867" y="15.1836" width="6.35744" height="6.87966"><div xmlns="http://www.w3.org/1999/xhtml" style="backdrop-filter:blur(0.45px);clip-path:url(#bgblur_3_1488_8227_clip_path);height:100%;width:100%"></div></foreignObject><g id="Frame 2087328324" filter="url(#filter6_i_1488_8227)" data-figma-bg-blur-radius="0.908211">
<g clip-path="url(#clip2_1488_8227)">
<rect x="15.2949" y="16.0918" width="4.54107" height="4.54107" rx="2.27054" fill="url(#paint2_linear_1488_8227)" fill-opacity="0.1"/>
<g id="Ellipse 6791_2" filter="url(#filter7_iin_1488_8227)">
<circle cx="17.5655" cy="18.3604" r="2.27053" fill="white" fill-opacity="0.1"/>
</g>
<g id="Vector 47_2" filter="url(#filter8_fn_1488_8227)">
<path d="M18.8107 20.6715C18.8917 20.6827 18.9767 20.6726 19.0504 20.634C19.124 20.5955 19.18 20.5327 19.2067 20.457C19.2334 20.3813 19.2293 20.2973 19.1962 20.2211C19.1631 20.1448 19.1033 20.0835 19.0332 20.0414C19.0332 20.0414 19.0332 20.0414 19.0332 20.0414C18.9814 20.0086 18.9355 19.9764 18.8929 19.943C18.7383 19.8264 18.7192 19.7311 18.7475 19.7088C18.748 19.6604 18.8281 19.4514 18.8053 19.0711C18.7946 18.932 18.7876 18.8062 18.7919 18.707C18.8005 18.5501 18.816 18.4584 18.8894 18.3001C18.776 18.4086 18.8472 18.3114 18.8924 18.2855C18.946 18.2457 19.015 18.2032 19.0865 18.1607C19.2308 18.0755 19.3888 17.9882 19.5483 17.8975C19.6072 17.8641 19.6679 17.8299 19.7242 17.7966C19.7669 17.7729 19.8059 17.7406 19.8314 17.6984C19.8568 17.6563 19.8666 17.6084 19.858 17.5626C19.8495 17.5168 19.8232 17.4757 19.7843 17.4455C19.7455 17.4153 19.6973 17.3992 19.6491 17.3924C19.6491 17.3924 19.6491 17.3924 19.6491 17.3924C19.5751 17.3839 19.5049 17.3772 19.4324 17.3727C19.2375 17.3606 19.043 17.3616 18.8409 17.3857C18.7396 17.3982 18.6369 17.4157 18.5242 17.4488C18.4067 17.4978 18.3032 17.4789 18.0782 17.7312C17.8716 17.9618 17.7215 18.3397 17.7171 18.6621C17.7091 18.8657 17.7318 19.0425 17.7588 19.2038C17.7938 19.2729 17.7271 19.5163 17.8235 19.914C17.9418 20.3476 18.3323 20.5524 18.5778 20.6189C18.6579 20.6427 18.733 20.6584 18.8107 20.6715Z" fill="#1174BD"/>
</g>
<g id="Vector 49_2" filter="url(#filter9_fn_1488_8227)">
<path d="M17.2622 20.8785C17.3025 20.9719 17.3674 21.0564 17.4554 21.111C17.5433 21.1655 17.6457 21.1859 17.7436 21.1669C17.8415 21.1479 17.9289 21.0907 17.99 21.0072C18.0512 20.9237 18.0798 20.8211 18.0822 20.7193C18.0822 20.7193 18.0822 20.7193 18.0822 20.7193C18.0875 20.6554 18.0911 20.5752 18.0961 20.5015C18.1322 19.9308 18.2049 19.2392 18.3388 19.0333C18.3466 19.0216 18.3749 18.9801 18.4059 18.9419C18.7378 18.5657 19.0794 18.1812 19.6144 18.1414C19.6773 18.139 19.7433 18.1418 19.8138 18.1518C19.8733 18.1637 19.9364 18.1652 19.9946 18.1467C20.0529 18.1283 20.1012 18.0919 20.1309 18.0425C20.1606 17.993 20.1699 17.9333 20.1589 17.8732C20.1478 17.8131 20.1168 17.7582 20.0784 17.7112C20.0784 17.7112 20.0784 17.7112 20.0784 17.7112C20.0125 17.6394 19.9394 17.5734 19.8558 17.5145C19.0189 16.9361 17.8896 17.4171 17.3552 18.1026C17.2887 18.1868 17.2251 18.274 17.1591 18.3986C16.7625 19.3469 16.9905 19.9758 17.1732 20.6326C17.2005 20.7149 17.2284 20.7904 17.2622 20.8785Z" fill="#1174BD"/>
</g>
<g id="Vector 48_2" filter="url(#filter10_fn_1488_8227)">
<path d="M19.4941 17.6825C19.4797 17.6781 19.4667 17.6739 19.4574 17.6708C19.448 17.6677 19.4418 17.666 19.4355 17.6661C19.4291 17.6662 19.423 17.6682 19.4137 17.6716C19.4045 17.6751 19.3917 17.6798 19.3774 17.6847C19.3774 17.6847 19.3774 17.6847 19.3774 17.6847C19.2515 17.7262 19.1879 17.7634 19.1872 17.8037C19.1869 17.8194 19.1865 17.8377 19.1861 17.8534C19.1681 18.3411 19.1237 18.9175 18.9032 19.2151C18.6215 19.4933 18.0374 19.6593 17.5432 19.7989C17.4877 19.8138 17.4285 19.8289 17.3756 19.8419C17.3869 19.9167 17.3982 19.9915 17.4096 20.0664C17.4698 20.0617 17.5306 20.0554 17.5902 20.0488C18.1354 19.9635 18.6751 19.9444 19.2194 19.514C19.6577 18.9696 19.6423 18.4109 19.682 17.867C19.6825 17.8499 19.683 17.8299 19.6833 17.8127C19.6841 17.7684 19.6212 17.7247 19.4941 17.6825Z" fill="#1174BD"/>
</g>
</g>
</g>
<foreignObject x="23.4687" y="22.459" width="6.35744" height="6.87966"><div xmlns="http://www.w3.org/1999/xhtml" style="backdrop-filter:blur(0.45px);clip-path:url(#bgblur_5_1488_8227_clip_path);height:100%;width:100%"></div></foreignObject><g id="Frame 2087328325" filter="url(#filter11_i_1488_8227)" data-figma-bg-blur-radius="0.908211">
<g clip-path="url(#clip4_1488_8227)">
<rect x="24.377" y="23.3672" width="4.54107" height="4.54107" rx="2.27054" fill="url(#paint3_linear_1488_8227)" fill-opacity="0.1"/>
<g id="Ellipse 6791_3" filter="url(#filter12_iin_1488_8227)">
<circle cx="26.6475" cy="25.6367" r="2.27053" fill="white" fill-opacity="0.1"/>
</g>
<g id="Vector 47_3" filter="url(#filter13_fn_1488_8227)">
<path d="M27.8947 27.9469C27.9757 27.9581 28.0607 27.948 28.1344 27.9094C28.208 27.8709 28.2639 27.8081 28.2907 27.7324C28.3174 27.6567 28.3133 27.5727 28.2802 27.4965C28.2471 27.4202 28.1873 27.3589 28.1172 27.3168C28.1172 27.3168 28.1172 27.3168 28.1172 27.3168C28.0654 27.284 28.0195 27.2517 27.9769 27.2184C27.8223 27.1018 27.8032 27.0065 27.8315 26.9842C27.832 26.9358 27.9121 26.7268 27.8893 26.3465C27.8785 26.2074 27.8715 26.0816 27.8759 25.9824C27.8844 25.8255 27.9 25.7338 27.9734 25.5755C27.86 25.684 27.9312 25.5868 27.9764 25.5609C28.03 25.5211 28.099 25.4785 28.1705 25.4361C28.3148 25.3509 28.4728 25.2636 28.6323 25.1729C28.6911 25.1395 28.7519 25.1053 28.8082 25.072C28.8508 25.0483 28.8899 25.016 28.9153 24.9738C28.9408 24.9317 28.9506 24.8838 28.942 24.838C28.9335 24.7922 28.9072 24.751 28.8683 24.7209C28.8294 24.6907 28.7813 24.6746 28.733 24.6678C28.733 24.6678 28.733 24.6678 28.733 24.6678C28.6591 24.6593 28.5889 24.6525 28.5164 24.6481C28.3214 24.636 28.1269 24.637 27.9249 24.6611C27.8235 24.6736 27.7209 24.6911 27.6082 24.7242C27.4906 24.7732 27.3872 24.7543 27.1622 25.0066C26.9556 25.2372 26.8055 25.6151 26.8011 25.9375C26.7931 26.1411 26.8158 26.3179 26.8427 26.4792C26.8778 26.5483 26.8111 26.7917 26.9075 27.1894C27.0258 27.623 27.4163 27.8278 27.6618 27.8943C27.7419 27.9181 27.817 27.9338 27.8947 27.9469Z" fill="#1174BD"/>
</g>
<g id="Vector 49_3" filter="url(#filter14_fn_1488_8227)">
<path d="M26.3442 28.1548C26.3845 28.2483 26.4494 28.3328 26.5374 28.3873C26.6253 28.4419 26.7277 28.4622 26.8256 28.4432C26.9235 28.4243 27.0109 28.3671 27.0721 28.2836C27.1333 28.2001 27.1618 28.0974 27.1643 27.9957C27.1643 27.9957 27.1643 27.9957 27.1643 27.9957C27.1696 27.9318 27.1732 27.8516 27.1781 27.7779C27.2142 27.2072 27.2869 26.5155 27.4208 26.3097C27.4286 26.298 27.457 26.2565 27.4879 26.2183C27.8198 25.8421 28.1614 25.4575 28.6964 25.4178C28.7593 25.4154 28.8254 25.4182 28.8958 25.4282C28.9554 25.4401 29.0184 25.4416 29.0767 25.4231C29.1349 25.4046 29.1832 25.3683 29.2129 25.3188C29.2426 25.2694 29.252 25.2096 29.2409 25.1496C29.2298 25.0895 29.1989 25.0345 29.1604 24.9876C29.1604 24.9876 29.1604 24.9876 29.1604 24.9876C29.0945 24.9157 29.0214 24.8498 28.9378 24.7909C28.1009 24.2125 26.9717 24.6934 26.4372 25.379C26.3707 25.4632 26.3072 25.5504 26.2411 25.675C25.8446 26.6233 26.0725 27.2522 26.2552 27.9089C26.2825 27.9913 26.3104 28.0667 26.3442 28.1548Z" fill="#1174BD"/>
</g>
<g id="Vector 48_3" filter="url(#filter15_fn_1488_8227)">
<path d="M28.5762 24.9579C28.5617 24.9535 28.5487 24.9493 28.5395 24.9462C28.53 24.9431 28.5238 24.9414 28.5175 24.9415C28.5112 24.9416 28.505 24.9436 28.4957 24.947C28.4865 24.9505 28.4737 24.9552 28.4595 24.9601C28.4595 24.9601 28.4595 24.9601 28.4595 24.9601C28.3335 25.0016 28.2699 25.0388 28.2692 25.0791C28.269 25.0948 28.2686 25.1131 28.2681 25.1288C28.2502 25.6165 28.2057 26.1929 27.9852 26.4905C27.7035 26.7687 27.1194 26.9347 26.6253 27.0743C26.5697 27.0892 26.5105 27.1043 26.4576 27.1173C26.4689 27.1921 26.4803 27.2669 26.4916 27.3418C26.5518 27.3371 26.6126 27.3308 26.6722 27.3241C27.2174 27.2389 27.7571 27.2198 28.3014 26.7894C28.7398 26.245 28.7243 25.6863 28.764 25.1424C28.7645 25.1252 28.765 25.1053 28.7653 25.0881C28.7661 25.0438 28.7032 25.0001 28.5762 24.9579Z" fill="#1174BD"/>
</g>
</g>
</g>
<foreignObject x="32.5508" y="15.1836" width="6.35744" height="6.87966"><div xmlns="http://www.w3.org/1999/xhtml" style="backdrop-filter:blur(0.45px);clip-path:url(#bgblur_7_1488_8227_clip_path);height:100%;width:100%"></div></foreignObject><g id="Frame 2087328326" filter="url(#filter16_i_1488_8227)" data-figma-bg-blur-radius="0.908211">
<g clip-path="url(#clip6_1488_8227)">
<rect x="33.459" y="16.0918" width="4.54107" height="4.54107" rx="2.27054" fill="url(#paint4_linear_1488_8227)" fill-opacity="0.1"/>
<g id="Ellipse 6791_4" filter="url(#filter17_iin_1488_8227)">
<circle cx="35.7295" cy="18.3604" r="2.27053" fill="white" fill-opacity="0.1"/>
</g>
<g id="Vector 47_4" filter="url(#filter18_fn_1488_8227)">
<path d="M36.9767 20.6715C37.0577 20.6827 37.1427 20.6726 37.2164 20.634C37.2901 20.5955 37.346 20.5327 37.3727 20.457C37.3994 20.3813 37.3954 20.2973 37.3622 20.2211C37.3291 20.1448 37.2693 20.0835 37.1993 20.0414C37.1993 20.0414 37.1993 20.0414 37.1993 20.0414C37.1474 20.0086 37.1015 19.9764 37.0589 19.943C36.9044 19.8264 36.8852 19.7311 36.9135 19.7088C36.914 19.6604 36.9941 19.4514 36.9713 19.0711C36.9606 18.932 36.9536 18.8062 36.958 18.707C36.9665 18.5501 36.982 18.4584 37.0554 18.3001C36.942 18.4086 37.0132 18.3114 37.0584 18.2855C37.112 18.2457 37.181 18.2032 37.2525 18.1607C37.3968 18.0755 37.5549 17.9882 37.7143 17.8975C37.7732 17.8641 37.8339 17.8299 37.8902 17.7966C37.9329 17.7729 37.972 17.7406 37.9974 17.6984C38.0228 17.6563 38.0326 17.6084 38.0241 17.5626C38.0155 17.5168 37.9892 17.4757 37.9503 17.4455C37.9115 17.4153 37.8634 17.3992 37.8151 17.3924C37.8151 17.3924 37.8151 17.3924 37.8151 17.3924C37.7411 17.3839 37.6709 17.3772 37.5985 17.3727C37.4035 17.3606 37.209 17.3616 37.007 17.3857C36.9056 17.3982 36.8029 17.4157 36.6902 17.4488C36.5727 17.4978 36.4692 17.4789 36.2442 17.7312C36.0377 17.9618 35.8875 18.3397 35.8831 18.6621C35.8751 18.8657 35.8978 19.0425 35.9248 19.2038C35.9598 19.2729 35.8931 19.5163 35.9895 19.914C36.1079 20.3476 36.4983 20.5524 36.7438 20.6189C36.8239 20.6427 36.899 20.6584 36.9767 20.6715Z" fill="#1174BD"/>
</g>
<g id="Vector 49_4" filter="url(#filter19_fn_1488_8227)">
<path d="M35.4262 20.8785C35.4665 20.9719 35.5314 21.0564 35.6194 21.111C35.7073 21.1655 35.8098 21.1859 35.9077 21.1669C36.0056 21.1479 36.093 21.0907 36.1541 21.0072C36.2153 20.9237 36.2439 20.8211 36.2463 20.7193C36.2463 20.7193 36.2463 20.7193 36.2463 20.7193C36.2516 20.6554 36.2552 20.5752 36.2602 20.5015C36.2962 19.9308 36.3689 19.2392 36.5029 19.0333C36.5107 19.0216 36.539 18.9801 36.5699 18.9419C36.9018 18.5657 37.2434 18.1812 37.7784 18.1414C37.8414 18.139 37.9074 18.1418 37.9779 18.1518C38.0374 18.1637 38.1005 18.1652 38.1587 18.1467C38.2169 18.1283 38.2652 18.0919 38.2949 18.0425C38.3246 17.993 38.334 17.9333 38.3229 17.8732C38.3118 17.8131 38.2809 17.7582 38.2424 17.7112C38.2424 17.7112 38.2424 17.7112 38.2424 17.7112C38.1766 17.6394 38.1034 17.5734 38.0198 17.5145C37.183 16.9361 36.0537 17.4171 35.5193 18.1026C35.4527 18.1868 35.3892 18.274 35.3231 18.3986C34.9266 19.3469 35.1545 19.9758 35.3373 20.6326C35.3645 20.7149 35.3925 20.7904 35.4262 20.8785Z" fill="#1174BD"/>
</g>
<g id="Vector 48_4" filter="url(#filter20_fn_1488_8227)">
<path d="M37.6582 17.6825C37.6437 17.6781 37.6308 17.6739 37.6215 17.6708C37.612 17.6677 37.6059 17.666 37.5995 17.6661C37.5932 17.6662 37.5871 17.6682 37.5777 17.6716C37.5686 17.6751 37.5558 17.6798 37.5415 17.6847C37.5415 17.6847 37.5415 17.6847 37.5415 17.6847C37.4156 17.7262 37.352 17.7634 37.3513 17.8037C37.351 17.8194 37.3506 17.8377 37.3502 17.8534C37.3322 18.3411 37.2878 18.9175 37.0672 19.2151C36.7855 19.4933 36.2015 19.6593 35.7073 19.7989C35.6517 19.8138 35.5925 19.8289 35.5396 19.8419C35.551 19.9167 35.5623 19.9915 35.5736 20.0664C35.6338 20.0617 35.6947 20.0554 35.7543 20.0488C36.2994 19.9635 36.8391 19.9444 37.3835 19.514C37.8218 18.9696 37.8064 18.4109 37.8461 17.867C37.8466 17.8499 37.847 17.8299 37.8473 17.8127C37.8481 17.7684 37.7853 17.7247 37.6582 17.6825Z" fill="#1174BD"/>
</g>
</g>
</g>
</g>
</g>
</g>
<defs>
<filter id="filter0_ii_1488_8227" x="7.51172" y="17.6055" width="29.2461" height="9.06055" filterUnits="userSpaceOnUse" color-interpolation-filters="sRGB">
<feFlood flood-opacity="0" result="BackgroundImageFix"/>
<feBlend mode="normal" in="SourceGraphic" in2="BackgroundImageFix" result="shape"/>
<feColorMatrix in="SourceAlpha" type="matrix" values="0 0 0 0 0 0 0 0 0 0 0 0 0 0 0 0 0 0 127 0" result="hardAlpha"/>
<feOffset dy="0.151369"/>
<feGaussianBlur stdDeviation="0.378423"/>
<feComposite in2="hardAlpha" operator="arithmetic" k2="-1" k3="1"/>
<feColorMatrix type="matrix" values="0 0 0 0 0.687872 0 0 0 0 0.874339 0 0 0 0 0.93109 0 0 0 1 0"/>
<feBlend mode="normal" in2="shape" result="effect1_innerShadow_1488_8227"/>
<feColorMatrix in="SourceAlpha" type="matrix" values="0 0 0 0 0 0 0 0 0 0 0 0 0 0 0 0 0 0 127 0" result="hardAlpha"/>
<feOffset dy="0.272464"/>
<feGaussianBlur stdDeviation="0.378423"/>
<feComposite in2="hardAlpha" operator="arithmetic" k2="-1" k3="1"/>
<feColorMatrix type="matrix" values="0 0 0 0 0.0666667 0 0 0 0 0.454902 0 0 0 0 0.741176 0 0 0 1 0"/>
<feBlend mode="normal" in2="effect1_innerShadow_1488_8227" result="effect2_innerShadow_1488_8227"/>
</filter>
<filter id="filter1_i_1488_8227" x="5.09179" y="22.459" width="6.35744" height="6.87966" filterUnits="userSpaceOnUse" color-interpolation-filters="sRGB">
<feFlood flood-opacity="0" result="BackgroundImageFix"/>
<feBlend mode="normal" in="SourceGraphic" in2="BackgroundImageFix" result="shape"/>
<feColorMatrix in="SourceAlpha" type="matrix" values="0 0 0 0 0 0 0 0 0 0 0 0 0 0 0 0 0 0 127 0" result="hardAlpha"/>
<feOffset dy="1.58937"/>
<feGaussianBlur stdDeviation="0.715216"/>
<feComposite in2="hardAlpha" operator="arithmetic" k2="-1" k3="1"/>
<feColorMatrix type="matrix" values="0 0 0 0 0.32549 0 0 0 0 0.662745 0 0 0 0 0.909804 0 0 0 0.25 0"/>
<feBlend mode="normal" in2="shape" result="effect1_innerShadow_1488_8227"/>
</filter>
<clipPath id="bgblur_1_1488_8227_clip_path" transform="translate(-5.09179 -22.459)"><rect x="6" y="23.3672" width="4.54107" height="4.54107" rx="2.27054"/>
</clipPath><filter id="filter2_iin_1488_8227" x="5.77295" y="22.6094" width="4.76807" height="6.00399" filterUnits="userSpaceOnUse" color-interpolation-filters="sRGB">
<feFlood flood-opacity="0" result="BackgroundImageFix"/>
<feBlend mode="normal" in="SourceGraphic" in2="BackgroundImageFix" result="shape"/>
<feColorMatrix in="SourceAlpha" type="matrix" values="0 0 0 0 0 0 0 0 0 0 0 0 0 0 0 0 0 0 127 0" result="hardAlpha"/>
<feOffset dy="-0.756843"/>
<feGaussianBlur stdDeviation="0.504562"/>
<feComposite in2="hardAlpha" operator="arithmetic" k2="-1" k3="1"/>
<feColorMatrix type="matrix" values="0 0 0 0 0.0666 0 0 0 0 0.455813 0 0 0 0 0.74 0 0 0 1 0"/>
<feBlend mode="normal" in2="shape" result="effect1_innerShadow_1488_8227"/>
<feColorMatrix in="SourceAlpha" type="matrix" values="0 0 0 0 0 0 0 0 0 0 0 0 0 0 0 0 0 0 127 0" result="hardAlpha"/>
<feOffset dx="-0.227053" dy="0.706134"/>
<feGaussianBlur stdDeviation="0.504562"/>
<feComposite in2="hardAlpha" operator="arithmetic" k2="-1" k3="1"/>
<feColorMatrix type="matrix" values="0 0 0 0 0.645691 0 0 0 0 0.826908 0 0 0 0 0.95966 0 0 0 1 0"/>
<feBlend mode="normal" in2="effect1_innerShadow_1488_8227" result="effect2_innerShadow_1488_8227"/>
<feTurbulence type="fractalNoise" baseFrequency="inf inf" stitchTiles="stitch" numOctaves="3" result="noise" seed="9475" />
<feColorMatrix in="noise" type="luminanceToAlpha" result="alphaNoise" />
<feComponentTransfer in="alphaNoise" result="coloredNoise1">
<feFuncA type="discrete" tableValues="0 0 0 0 0 0 0 0 0 0 0 0 1 1 1 1 1 1 1 1 1 1 1 1 1 1 1 1 1 1 1 1 1 1 1 1 1 1 0 0 0 0 0 0 0 0 0 0 0 0 0 0 0 0 0 0 0 0 0 0 0 0 0 0 0 0 0 0 0 0 0 0 0 0 0 0 0 0 0 0 0 0 0 0 0 0 0 0 0 0 0 0 0 0 0 0 0 0 0 0 "/>
</feComponentTransfer>
<feComposite operator="in" in2="effect2_innerShadow_1488_8227" in="coloredNoise1" result="noise1Clipped" />
<feFlood flood-color="rgba(0, 0, 0, 0.25)" result="color1Flood" />
<feComposite operator="in" in2="noise1Clipped" in="color1Flood" result="color1" />
<feMerge result="effect3_noise_1488_8227">
<feMergeNode in="effect2_innerShadow_1488_8227" />
<feMergeNode in="color1" />
</feMerge>
</filter>
<filter id="filter3_fn_1488_8227" x="7.51171" y="23.7344" width="3.96291" height="5.12697" filterUnits="userSpaceOnUse" color-interpolation-filters="sRGB">
<feFlood flood-opacity="0" result="BackgroundImageFix"/>
<feBlend mode="normal" in="SourceGraphic" in2="BackgroundImageFix" result="shape"/>
<feGaussianBlur stdDeviation="0.454106" result="effect1_foregroundBlur_1488_8227"/>
<feTurbulence type="fractalNoise" baseFrequency="4404.2607421875 4404.2607421875" stitchTiles="stitch" numOctaves="3" result="noise" seed="4227" />
<feColorMatrix in="noise" type="luminanceToAlpha" result="alphaNoise" />
<feComponentTransfer in="alphaNoise" result="coloredNoise1">
<feFuncA type="discrete" tableValues="1 1 1 1 1 1 1 1 1 1 1 1 1 1 1 1 1 1 1 1 1 1 1 1 1 1 1 1 1 1 1 1 1 1 1 1 1 1 1 1 1 1 1 1 1 1 1 1 1 1 1 0 0 0 0 0 0 0 0 0 0 0 0 0 0 0 0 0 0 0 0 0 0 0 0 0 0 0 0 0 0 0 0 0 0 0 0 0 0 0 0 0 0 0 0 0 0 0 0 0 "/>
</feComponentTransfer>
<feComposite operator="in" in2="effect1_foregroundBlur_1488_8227" in="coloredNoise1" result="noise1Clipped" />
<feFlood flood-color="rgba(0, 0, 0, 0.25)" result="color1Flood" />
<feComposite operator="in" in2="noise1Clipped" in="color1Flood" result="color1" />
<feMerge result="effect2_noise_1488_8227">
<feMergeNode in="effect1_foregroundBlur_1488_8227" />
<feMergeNode in="color1" />
</feMerge>
</filter>
<filter id="filter4_fn_1488_8227" x="6.73632" y="23.623" width="5.04103" height="5.73341" filterUnits="userSpaceOnUse" color-interpolation-filters="sRGB">
<feFlood flood-opacity="0" result="BackgroundImageFix"/>
<feBlend mode="normal" in="SourceGraphic" in2="BackgroundImageFix" result="shape"/>
<feGaussianBlur stdDeviation="0.454106" result="effect1_foregroundBlur_1488_8227"/>
<feTurbulence type="fractalNoise" baseFrequency="4404.2607421875 4404.2607421875" stitchTiles="stitch" numOctaves="3" result="noise" seed="4227" />
<feColorMatrix in="noise" type="luminanceToAlpha" result="alphaNoise" />
<feComponentTransfer in="alphaNoise" result="coloredNoise1">
<feFuncA type="discrete" tableValues="1 1 1 1 1 1 1 1 1 1 1 1 1 1 1 1 1 1 1 1 1 1 1 1 1 1 1 1 1 1 1 1 1 1 1 1 1 1 1 1 1 1 1 1 1 1 1 1 1 1 1 0 0 0 0 0 0 0 0 0 0 0 0 0 0 0 0 0 0 0 0 0 0 0 0 0 0 0 0 0 0 0 0 0 0 0 0 0 0 0 0 0 0 0 0 0 0 0 0 0 "/>
</feComponentTransfer>
<feComposite operator="in" in2="effect1_foregroundBlur_1488_8227" in="coloredNoise1" result="noise1Clipped" />
<feFlood flood-color="rgba(0, 0, 0, 0.25)" result="color1Flood" />
<feComposite operator="in" in2="noise1Clipped" in="color1Flood" result="color1" />
<feMerge result="effect2_noise_1488_8227">
<feMergeNode in="effect1_foregroundBlur_1488_8227" />
<feMergeNode in="color1" />
</feMerge>
</filter>
<filter id="filter5_fn_1488_8227" x="7.17187" y="24.0332" width="4.12502" height="4.21681" filterUnits="userSpaceOnUse" color-interpolation-filters="sRGB">
<feFlood flood-opacity="0" result="BackgroundImageFix"/>
<feBlend mode="normal" in="SourceGraphic" in2="BackgroundImageFix" result="shape"/>
<feGaussianBlur stdDeviation="0.454106" result="effect1_foregroundBlur_1488_8227"/>
<feTurbulence type="fractalNoise" baseFrequency="4404.2607421875 4404.2607421875" stitchTiles="stitch" numOctaves="3" result="noise" seed="1902" />
<feColorMatrix in="noise" type="luminanceToAlpha" result="alphaNoise" />
<feComponentTransfer in="alphaNoise" result="coloredNoise1">
<feFuncA type="discrete" tableValues="1 1 1 1 1 1 1 1 1 1 1 1 1 1 1 1 1 1 1 1 1 1 1 1 1 1 1 1 1 1 1 1 1 1 1 1 1 1 1 1 1 1 1 1 1 1 1 1 1 1 1 0 0 0 0 0 0 0 0 0 0 0 0 0 0 0 0 0 0 0 0 0 0 0 0 0 0 0 0 0 0 0 0 0 0 0 0 0 0 0 0 0 0 0 0 0 0 0 0 0 "/>
</feComponentTransfer>
<feComposite operator="in" in2="effect1_foregroundBlur_1488_8227" in="coloredNoise1" result="noise1Clipped" />
<feFlood flood-color="rgba(0, 0, 0, 0.25)" result="color1Flood" />
<feComposite operator="in" in2="noise1Clipped" in="color1Flood" result="color1" />
<feMerge result="effect2_noise_1488_8227">
<feMergeNode in="effect1_foregroundBlur_1488_8227" />
<feMergeNode in="color1" />
</feMerge>
</filter>
<filter id="filter6_i_1488_8227" x="14.3867" y="15.1836" width="6.35744" height="6.87966" filterUnits="userSpaceOnUse" color-interpolation-filters="sRGB">
<feFlood flood-opacity="0" result="BackgroundImageFix"/>
<feBlend mode="normal" in="SourceGraphic" in2="BackgroundImageFix" result="shape"/>
<feColorMatrix in="SourceAlpha" type="matrix" values="0 0 0 0 0 0 0 0 0 0 0 0 0 0 0 0 0 0 127 0" result="hardAlpha"/>
<feOffset dy="1.58937"/>
<feGaussianBlur stdDeviation="0.715216"/>
<feComposite in2="hardAlpha" operator="arithmetic" k2="-1" k3="1"/>
<feColorMatrix type="matrix" values="0 0 0 0 0.32549 0 0 0 0 0.662745 0 0 0 0 0.909804 0 0 0 0.25 0"/>
<feBlend mode="normal" in2="shape" result="effect1_innerShadow_1488_8227"/>
</filter>
<clipPath id="bgblur_3_1488_8227_clip_path" transform="translate(-14.3867 -15.1836)"><rect x="15.2949" y="16.0918" width="4.54107" height="4.54107" rx="2.27054"/>
</clipPath><filter id="filter7_iin_1488_8227" x="15.0679" y="15.333" width="4.76807" height="6.00399" filterUnits="userSpaceOnUse" color-interpolation-filters="sRGB">
<feFlood flood-opacity="0" result="BackgroundImageFix"/>
<feBlend mode="normal" in="SourceGraphic" in2="BackgroundImageFix" result="shape"/>
<feColorMatrix in="SourceAlpha" type="matrix" values="0 0 0 0 0 0 0 0 0 0 0 0 0 0 0 0 0 0 127 0" result="hardAlpha"/>
<feOffset dy="-0.756843"/>
<feGaussianBlur stdDeviation="0.504562"/>
<feComposite in2="hardAlpha" operator="arithmetic" k2="-1" k3="1"/>
<feColorMatrix type="matrix" values="0 0 0 0 0.0666 0 0 0 0 0.455813 0 0 0 0 0.74 0 0 0 1 0"/>
<feBlend mode="normal" in2="shape" result="effect1_innerShadow_1488_8227"/>
<feColorMatrix in="SourceAlpha" type="matrix" values="0 0 0 0 0 0 0 0 0 0 0 0 0 0 0 0 0 0 127 0" result="hardAlpha"/>
<feOffset dx="-0.227053" dy="0.706134"/>
<feGaussianBlur stdDeviation="0.504562"/>
<feComposite in2="hardAlpha" operator="arithmetic" k2="-1" k3="1"/>
<feColorMatrix type="matrix" values="0 0 0 0 0.645691 0 0 0 0 0.826908 0 0 0 0 0.95966 0 0 0 1 0"/>
<feBlend mode="normal" in2="effect1_innerShadow_1488_8227" result="effect2_innerShadow_1488_8227"/>
<feTurbulence type="fractalNoise" baseFrequency="inf inf" stitchTiles="stitch" numOctaves="3" result="noise" seed="9475" />
<feColorMatrix in="noise" type="luminanceToAlpha" result="alphaNoise" />
<feComponentTransfer in="alphaNoise" result="coloredNoise1">
<feFuncA type="discrete" tableValues="0 0 0 0 0 0 0 0 0 0 0 0 1 1 1 1 1 1 1 1 1 1 1 1 1 1 1 1 1 1 1 1 1 1 1 1 1 1 0 0 0 0 0 0 0 0 0 0 0 0 0 0 0 0 0 0 0 0 0 0 0 0 0 0 0 0 0 0 0 0 0 0 0 0 0 0 0 0 0 0 0 0 0 0 0 0 0 0 0 0 0 0 0 0 0 0 0 0 0 0 "/>
</feComponentTransfer>
<feComposite operator="in" in2="effect2_innerShadow_1488_8227" in="coloredNoise1" result="noise1Clipped" />
<feFlood flood-color="rgba(0, 0, 0, 0.25)" result="color1Flood" />
<feComposite operator="in" in2="noise1Clipped" in="color1Flood" result="color1" />
<feMerge result="effect3_noise_1488_8227">
<feMergeNode in="effect2_innerShadow_1488_8227" />
<feMergeNode in="color1" />
</feMerge>
</filter>
<filter id="filter8_fn_1488_8227" x="16.8066" y="16.457" width="3.96291" height="5.12697" filterUnits="userSpaceOnUse" color-interpolation-filters="sRGB">
<feFlood flood-opacity="0" result="BackgroundImageFix"/>
<feBlend mode="normal" in="SourceGraphic" in2="BackgroundImageFix" result="shape"/>
<feGaussianBlur stdDeviation="0.454106" result="effect1_foregroundBlur_1488_8227"/>
<feTurbulence type="fractalNoise" baseFrequency="4404.2607421875 4404.2607421875" stitchTiles="stitch" numOctaves="3" result="noise" seed="4227" />
<feColorMatrix in="noise" type="luminanceToAlpha" result="alphaNoise" />
<feComponentTransfer in="alphaNoise" result="coloredNoise1">
<feFuncA type="discrete" tableValues="1 1 1 1 1 1 1 1 1 1 1 1 1 1 1 1 1 1 1 1 1 1 1 1 1 1 1 1 1 1 1 1 1 1 1 1 1 1 1 1 1 1 1 1 1 1 1 1 1 1 1 0 0 0 0 0 0 0 0 0 0 0 0 0 0 0 0 0 0 0 0 0 0 0 0 0 0 0 0 0 0 0 0 0 0 0 0 0 0 0 0 0 0 0 0 0 0 0 0 0 "/>
</feComponentTransfer>
<feComposite operator="in" in2="effect1_foregroundBlur_1488_8227" in="coloredNoise1" result="noise1Clipped" />
<feFlood flood-color="rgba(0, 0, 0, 0.25)" result="color1Flood" />
<feComposite operator="in" in2="noise1Clipped" in="color1Flood" result="color1" />
<feMerge result="effect2_noise_1488_8227">
<feMergeNode in="effect1_foregroundBlur_1488_8227" />
<feMergeNode in="color1" />
</feMerge>
</filter>
<filter id="filter9_fn_1488_8227" x="16.0312" y="16.3486" width="5.04103" height="5.73341" filterUnits="userSpaceOnUse" color-interpolation-filters="sRGB">
<feFlood flood-opacity="0" result="BackgroundImageFix"/>
<feBlend mode="normal" in="SourceGraphic" in2="BackgroundImageFix" result="shape"/>
<feGaussianBlur stdDeviation="0.454106" result="effect1_foregroundBlur_1488_8227"/>
<feTurbulence type="fractalNoise" baseFrequency="4404.2607421875 4404.2607421875" stitchTiles="stitch" numOctaves="3" result="noise" seed="4227" />
<feColorMatrix in="noise" type="luminanceToAlpha" result="alphaNoise" />
<feComponentTransfer in="alphaNoise" result="coloredNoise1">
<feFuncA type="discrete" tableValues="1 1 1 1 1 1 1 1 1 1 1 1 1 1 1 1 1 1 1 1 1 1 1 1 1 1 1 1 1 1 1 1 1 1 1 1 1 1 1 1 1 1 1 1 1 1 1 1 1 1 1 0 0 0 0 0 0 0 0 0 0 0 0 0 0 0 0 0 0 0 0 0 0 0 0 0 0 0 0 0 0 0 0 0 0 0 0 0 0 0 0 0 0 0 0 0 0 0 0 0 "/>
</feComponentTransfer>
<feComposite operator="in" in2="effect1_foregroundBlur_1488_8227" in="coloredNoise1" result="noise1Clipped" />
<feFlood flood-color="rgba(0, 0, 0, 0.25)" result="color1Flood" />
<feComposite operator="in" in2="noise1Clipped" in="color1Flood" result="color1" />
<feMerge result="effect2_noise_1488_8227">
<feMergeNode in="effect1_foregroundBlur_1488_8227" />
<feMergeNode in="color1" />
</feMerge>
</filter>
<filter id="filter10_fn_1488_8227" x="16.4668" y="16.7578" width="4.12502" height="4.21681" filterUnits="userSpaceOnUse" color-interpolation-filters="sRGB">
<feFlood flood-opacity="0" result="BackgroundImageFix"/>
<feBlend mode="normal" in="SourceGraphic" in2="BackgroundImageFix" result="shape"/>
<feGaussianBlur stdDeviation="0.454106" result="effect1_foregroundBlur_1488_8227"/>
<feTurbulence type="fractalNoise" baseFrequency="4404.2607421875 4404.2607421875" stitchTiles="stitch" numOctaves="3" result="noise" seed="1902" />
<feColorMatrix in="noise" type="luminanceToAlpha" result="alphaNoise" />
<feComponentTransfer in="alphaNoise" result="coloredNoise1">
<feFuncA type="discrete" tableValues="1 1 1 1 1 1 1 1 1 1 1 1 1 1 1 1 1 1 1 1 1 1 1 1 1 1 1 1 1 1 1 1 1 1 1 1 1 1 1 1 1 1 1 1 1 1 1 1 1 1 1 0 0 0 0 0 0 0 0 0 0 0 0 0 0 0 0 0 0 0 0 0 0 0 0 0 0 0 0 0 0 0 0 0 0 0 0 0 0 0 0 0 0 0 0 0 0 0 0 0 "/>
</feComponentTransfer>
<feComposite operator="in" in2="effect1_foregroundBlur_1488_8227" in="coloredNoise1" result="noise1Clipped" />
<feFlood flood-color="rgba(0, 0, 0, 0.25)" result="color1Flood" />
<feComposite operator="in" in2="noise1Clipped" in="color1Flood" result="color1" />
<feMerge result="effect2_noise_1488_8227">
<feMergeNode in="effect1_foregroundBlur_1488_8227" />
<feMergeNode in="color1" />
</feMerge>
</filter>
<filter id="filter11_i_1488_8227" x="23.4687" y="22.459" width="6.35744" height="6.87966" filterUnits="userSpaceOnUse" color-interpolation-filters="sRGB">
<feFlood flood-opacity="0" result="BackgroundImageFix"/>
<feBlend mode="normal" in="SourceGraphic" in2="BackgroundImageFix" result="shape"/>
<feColorMatrix in="SourceAlpha" type="matrix" values="0 0 0 0 0 0 0 0 0 0 0 0 0 0 0 0 0 0 127 0" result="hardAlpha"/>
<feOffset dy="1.58937"/>
<feGaussianBlur stdDeviation="0.715216"/>
<feComposite in2="hardAlpha" operator="arithmetic" k2="-1" k3="1"/>
<feColorMatrix type="matrix" values="0 0 0 0 0.32549 0 0 0 0 0.662745 0 0 0 0 0.909804 0 0 0 0.25 0"/>
<feBlend mode="normal" in2="shape" result="effect1_innerShadow_1488_8227"/>
</filter>
<clipPath id="bgblur_5_1488_8227_clip_path" transform="translate(-23.4687 -22.459)"><rect x="24.377" y="23.3672" width="4.54107" height="4.54107" rx="2.27054"/>
</clipPath><filter id="filter12_iin_1488_8227" x="24.1499" y="22.6094" width="4.76807" height="6.00399" filterUnits="userSpaceOnUse" color-interpolation-filters="sRGB">
<feFlood flood-opacity="0" result="BackgroundImageFix"/>
<feBlend mode="normal" in="SourceGraphic" in2="BackgroundImageFix" result="shape"/>
<feColorMatrix in="SourceAlpha" type="matrix" values="0 0 0 0 0 0 0 0 0 0 0 0 0 0 0 0 0 0 127 0" result="hardAlpha"/>
<feOffset dy="-0.756843"/>
<feGaussianBlur stdDeviation="0.504562"/>
<feComposite in2="hardAlpha" operator="arithmetic" k2="-1" k3="1"/>
<feColorMatrix type="matrix" values="0 0 0 0 0.0666 0 0 0 0 0.455813 0 0 0 0 0.74 0 0 0 1 0"/>
<feBlend mode="normal" in2="shape" result="effect1_innerShadow_1488_8227"/>
<feColorMatrix in="SourceAlpha" type="matrix" values="0 0 0 0 0 0 0 0 0 0 0 0 0 0 0 0 0 0 127 0" result="hardAlpha"/>
<feOffset dx="-0.227053" dy="0.706134"/>
<feGaussianBlur stdDeviation="0.504562"/>
<feComposite in2="hardAlpha" operator="arithmetic" k2="-1" k3="1"/>
<feColorMatrix type="matrix" values="0 0 0 0 0.645691 0 0 0 0 0.826908 0 0 0 0 0.95966 0 0 0 1 0"/>
<feBlend mode="normal" in2="effect1_innerShadow_1488_8227" result="effect2_innerShadow_1488_8227"/>
<feTurbulence type="fractalNoise" baseFrequency="inf inf" stitchTiles="stitch" numOctaves="3" result="noise" seed="9475" />
<feColorMatrix in="noise" type="luminanceToAlpha" result="alphaNoise" />
<feComponentTransfer in="alphaNoise" result="coloredNoise1">
<feFuncA type="discrete" tableValues="0 0 0 0 0 0 0 0 0 0 0 0 1 1 1 1 1 1 1 1 1 1 1 1 1 1 1 1 1 1 1 1 1 1 1 1 1 1 0 0 0 0 0 0 0 0 0 0 0 0 0 0 0 0 0 0 0 0 0 0 0 0 0 0 0 0 0 0 0 0 0 0 0 0 0 0 0 0 0 0 0 0 0 0 0 0 0 0 0 0 0 0 0 0 0 0 0 0 0 0 "/>
</feComponentTransfer>
<feComposite operator="in" in2="effect2_innerShadow_1488_8227" in="coloredNoise1" result="noise1Clipped" />
<feFlood flood-color="rgba(0, 0, 0, 0.25)" result="color1Flood" />
<feComposite operator="in" in2="noise1Clipped" in="color1Flood" result="color1" />
<feMerge result="effect3_noise_1488_8227">
<feMergeNode in="effect2_innerShadow_1488_8227" />
<feMergeNode in="color1" />
</feMerge>
</filter>
<filter id="filter13_fn_1488_8227" x="25.8906" y="23.7324" width="3.96291" height="5.12697" filterUnits="userSpaceOnUse" color-interpolation-filters="sRGB">
<feFlood flood-opacity="0" result="BackgroundImageFix"/>
<feBlend mode="normal" in="SourceGraphic" in2="BackgroundImageFix" result="shape"/>
<feGaussianBlur stdDeviation="0.454106" result="effect1_foregroundBlur_1488_8227"/>
<feTurbulence type="fractalNoise" baseFrequency="4404.2607421875 4404.2607421875" stitchTiles="stitch" numOctaves="3" result="noise" seed="4227" />
<feColorMatrix in="noise" type="luminanceToAlpha" result="alphaNoise" />
<feComponentTransfer in="alphaNoise" result="coloredNoise1">
<feFuncA type="discrete" tableValues="1 1 1 1 1 1 1 1 1 1 1 1 1 1 1 1 1 1 1 1 1 1 1 1 1 1 1 1 1 1 1 1 1 1 1 1 1 1 1 1 1 1 1 1 1 1 1 1 1 1 1 0 0 0 0 0 0 0 0 0 0 0 0 0 0 0 0 0 0 0 0 0 0 0 0 0 0 0 0 0 0 0 0 0 0 0 0 0 0 0 0 0 0 0 0 0 0 0 0 0 "/>
</feComponentTransfer>
<feComposite operator="in" in2="effect1_foregroundBlur_1488_8227" in="coloredNoise1" result="noise1Clipped" />
<feFlood flood-color="rgba(0, 0, 0, 0.25)" result="color1Flood" />
<feComposite operator="in" in2="noise1Clipped" in="color1Flood" result="color1" />
<feMerge result="effect2_noise_1488_8227">
<feMergeNode in="effect1_foregroundBlur_1488_8227" />
<feMergeNode in="color1" />
</feMerge>
</filter>
<filter id="filter14_fn_1488_8227" x="25.1133" y="23.625" width="5.04103" height="5.73341" filterUnits="userSpaceOnUse" color-interpolation-filters="sRGB">
<feFlood flood-opacity="0" result="BackgroundImageFix"/>
<feBlend mode="normal" in="SourceGraphic" in2="BackgroundImageFix" result="shape"/>
<feGaussianBlur stdDeviation="0.454106" result="effect1_foregroundBlur_1488_8227"/>
<feTurbulence type="fractalNoise" baseFrequency="4404.2607421875 4404.2607421875" stitchTiles="stitch" numOctaves="3" result="noise" seed="4227" />
<feColorMatrix in="noise" type="luminanceToAlpha" result="alphaNoise" />
<feComponentTransfer in="alphaNoise" result="coloredNoise1">
<feFuncA type="discrete" tableValues="1 1 1 1 1 1 1 1 1 1 1 1 1 1 1 1 1 1 1 1 1 1 1 1 1 1 1 1 1 1 1 1 1 1 1 1 1 1 1 1 1 1 1 1 1 1 1 1 1 1 1 0 0 0 0 0 0 0 0 0 0 0 0 0 0 0 0 0 0 0 0 0 0 0 0 0 0 0 0 0 0 0 0 0 0 0 0 0 0 0 0 0 0 0 0 0 0 0 0 0 "/>
</feComponentTransfer>
<feComposite operator="in" in2="effect1_foregroundBlur_1488_8227" in="coloredNoise1" result="noise1Clipped" />
<feFlood flood-color="rgba(0, 0, 0, 0.25)" result="color1Flood" />
<feComposite operator="in" in2="noise1Clipped" in="color1Flood" result="color1" />
<feMerge result="effect2_noise_1488_8227">
<feMergeNode in="effect1_foregroundBlur_1488_8227" />
<feMergeNode in="color1" />
</feMerge>
</filter>
<filter id="filter15_fn_1488_8227" x="25.5488" y="24.0332" width="4.12502" height="4.21681" filterUnits="userSpaceOnUse" color-interpolation-filters="sRGB">
<feFlood flood-opacity="0" result="BackgroundImageFix"/>
<feBlend mode="normal" in="SourceGraphic" in2="BackgroundImageFix" result="shape"/>
<feGaussianBlur stdDeviation="0.454106" result="effect1_foregroundBlur_1488_8227"/>
<feTurbulence type="fractalNoise" baseFrequency="4404.2607421875 4404.2607421875" stitchTiles="stitch" numOctaves="3" result="noise" seed="1902" />
<feColorMatrix in="noise" type="luminanceToAlpha" result="alphaNoise" />
<feComponentTransfer in="alphaNoise" result="coloredNoise1">
<feFuncA type="discrete" tableValues="1 1 1 1 1 1 1 1 1 1 1 1 1 1 1 1 1 1 1 1 1 1 1 1 1 1 1 1 1 1 1 1 1 1 1 1 1 1 1 1 1 1 1 1 1 1 1 1 1 1 1 0 0 0 0 0 0 0 0 0 0 0 0 0 0 0 0 0 0 0 0 0 0 0 0 0 0 0 0 0 0 0 0 0 0 0 0 0 0 0 0 0 0 0 0 0 0 0 0 0 "/>
</feComponentTransfer>
<feComposite operator="in" in2="effect1_foregroundBlur_1488_8227" in="coloredNoise1" result="noise1Clipped" />
<feFlood flood-color="rgba(0, 0, 0, 0.25)" result="color1Flood" />
<feComposite operator="in" in2="noise1Clipped" in="color1Flood" result="color1" />
<feMerge result="effect2_noise_1488_8227">
<feMergeNode in="effect1_foregroundBlur_1488_8227" />
<feMergeNode in="color1" />
</feMerge>
</filter>
<filter id="filter16_i_1488_8227" x="32.5508" y="15.1836" width="6.35744" height="6.87966" filterUnits="userSpaceOnUse" color-interpolation-filters="sRGB">
<feFlood flood-opacity="0" result="BackgroundImageFix"/>
<feBlend mode="normal" in="SourceGraphic" in2="BackgroundImageFix" result="shape"/>
<feColorMatrix in="SourceAlpha" type="matrix" values="0 0 0 0 0 0 0 0 0 0 0 0 0 0 0 0 0 0 127 0" result="hardAlpha"/>
<feOffset dy="1.58937"/>
<feGaussianBlur stdDeviation="0.715216"/>
<feComposite in2="hardAlpha" operator="arithmetic" k2="-1" k3="1"/>
<feColorMatrix type="matrix" values="0 0 0 0 0.32549 0 0 0 0 0.662745 0 0 0 0 0.909804 0 0 0 0.25 0"/>
<feBlend mode="normal" in2="shape" result="effect1_innerShadow_1488_8227"/>
</filter>
<clipPath id="bgblur_7_1488_8227_clip_path" transform="translate(-32.5508 -15.1836)"><rect x="33.459" y="16.0918" width="4.54107" height="4.54107" rx="2.27054"/>
</clipPath><filter id="filter17_iin_1488_8227" x="33.2319" y="15.333" width="4.76807" height="6.00399" filterUnits="userSpaceOnUse" color-interpolation-filters="sRGB">
<feFlood flood-opacity="0" result="BackgroundImageFix"/>
<feBlend mode="normal" in="SourceGraphic" in2="BackgroundImageFix" result="shape"/>
<feColorMatrix in="SourceAlpha" type="matrix" values="0 0 0 0 0 0 0 0 0 0 0 0 0 0 0 0 0 0 127 0" result="hardAlpha"/>
<feOffset dy="-0.756843"/>
<feGaussianBlur stdDeviation="0.504562"/>
<feComposite in2="hardAlpha" operator="arithmetic" k2="-1" k3="1"/>
<feColorMatrix type="matrix" values="0 0 0 0 0.0666 0 0 0 0 0.455813 0 0 0 0 0.74 0 0 0 1 0"/>
<feBlend mode="normal" in2="shape" result="effect1_innerShadow_1488_8227"/>
<feColorMatrix in="SourceAlpha" type="matrix" values="0 0 0 0 0 0 0 0 0 0 0 0 0 0 0 0 0 0 127 0" result="hardAlpha"/>
<feOffset dx="-0.227053" dy="0.706134"/>
<feGaussianBlur stdDeviation="0.504562"/>
<feComposite in2="hardAlpha" operator="arithmetic" k2="-1" k3="1"/>
<feColorMatrix type="matrix" values="0 0 0 0 0.645691 0 0 0 0 0.826908 0 0 0 0 0.95966 0 0 0 1 0"/>
<feBlend mode="normal" in2="effect1_innerShadow_1488_8227" result="effect2_innerShadow_1488_8227"/>
<feTurbulence type="fractalNoise" baseFrequency="inf inf" stitchTiles="stitch" numOctaves="3" result="noise" seed="9475" />
<feColorMatrix in="noise" type="luminanceToAlpha" result="alphaNoise" />
<feComponentTransfer in="alphaNoise" result="coloredNoise1">
<feFuncA type="discrete" tableValues="0 0 0 0 0 0 0 0 0 0 0 0 1 1 1 1 1 1 1 1 1 1 1 1 1 1 1 1 1 1 1 1 1 1 1 1 1 1 0 0 0 0 0 0 0 0 0 0 0 0 0 0 0 0 0 0 0 0 0 0 0 0 0 0 0 0 0 0 0 0 0 0 0 0 0 0 0 0 0 0 0 0 0 0 0 0 0 0 0 0 0 0 0 0 0 0 0 0 0 0 "/>
</feComponentTransfer>
<feComposite operator="in" in2="effect2_innerShadow_1488_8227" in="coloredNoise1" result="noise1Clipped" />
<feFlood flood-color="rgba(0, 0, 0, 0.25)" result="color1Flood" />
<feComposite operator="in" in2="noise1Clipped" in="color1Flood" result="color1" />
<feMerge result="effect3_noise_1488_8227">
<feMergeNode in="effect2_innerShadow_1488_8227" />
<feMergeNode in="color1" />
</feMerge>
</filter>
<filter id="filter18_fn_1488_8227" x="34.9726" y="16.457" width="3.96291" height="5.12697" filterUnits="userSpaceOnUse" color-interpolation-filters="sRGB">
<feFlood flood-opacity="0" result="BackgroundImageFix"/>
<feBlend mode="normal" in="SourceGraphic" in2="BackgroundImageFix" result="shape"/>
<feGaussianBlur stdDeviation="0.454106" result="effect1_foregroundBlur_1488_8227"/>
<feTurbulence type="fractalNoise" baseFrequency="4404.2607421875 4404.2607421875" stitchTiles="stitch" numOctaves="3" result="noise" seed="4227" />
<feColorMatrix in="noise" type="luminanceToAlpha" result="alphaNoise" />
<feComponentTransfer in="alphaNoise" result="coloredNoise1">
<feFuncA type="discrete" tableValues="1 1 1 1 1 1 1 1 1 1 1 1 1 1 1 1 1 1 1 1 1 1 1 1 1 1 1 1 1 1 1 1 1 1 1 1 1 1 1 1 1 1 1 1 1 1 1 1 1 1 1 0 0 0 0 0 0 0 0 0 0 0 0 0 0 0 0 0 0 0 0 0 0 0 0 0 0 0 0 0 0 0 0 0 0 0 0 0 0 0 0 0 0 0 0 0 0 0 0 0 "/>
</feComponentTransfer>
<feComposite operator="in" in2="effect1_foregroundBlur_1488_8227" in="coloredNoise1" result="noise1Clipped" />
<feFlood flood-color="rgba(0, 0, 0, 0.25)" result="color1Flood" />
<feComposite operator="in" in2="noise1Clipped" in="color1Flood" result="color1" />
<feMerge result="effect2_noise_1488_8227">
<feMergeNode in="effect1_foregroundBlur_1488_8227" />
<feMergeNode in="color1" />
</feMerge>
</filter>
<filter id="filter19_fn_1488_8227" x="34.1953" y="16.3486" width="5.04103" height="5.73341" filterUnits="userSpaceOnUse" color-interpolation-filters="sRGB">
<feFlood flood-opacity="0" result="BackgroundImageFix"/>
<feBlend mode="normal" in="SourceGraphic" in2="BackgroundImageFix" result="shape"/>
<feGaussianBlur stdDeviation="0.454106" result="effect1_foregroundBlur_1488_8227"/>
<feTurbulence type="fractalNoise" baseFrequency="4404.2607421875 4404.2607421875" stitchTiles="stitch" numOctaves="3" result="noise" seed="4227" />
<feColorMatrix in="noise" type="luminanceToAlpha" result="alphaNoise" />
<feComponentTransfer in="alphaNoise" result="coloredNoise1">
<feFuncA type="discrete" tableValues="1 1 1 1 1 1 1 1 1 1 1 1 1 1 1 1 1 1 1 1 1 1 1 1 1 1 1 1 1 1 1 1 1 1 1 1 1 1 1 1 1 1 1 1 1 1 1 1 1 1 1 0 0 0 0 0 0 0 0 0 0 0 0 0 0 0 0 0 0 0 0 0 0 0 0 0 0 0 0 0 0 0 0 0 0 0 0 0 0 0 0 0 0 0 0 0 0 0 0 0 "/>
</feComponentTransfer>
<feComposite operator="in" in2="effect1_foregroundBlur_1488_8227" in="coloredNoise1" result="noise1Clipped" />
<feFlood flood-color="rgba(0, 0, 0, 0.25)" result="color1Flood" />
<feComposite operator="in" in2="noise1Clipped" in="color1Flood" result="color1" />
<feMerge result="effect2_noise_1488_8227">
<feMergeNode in="effect1_foregroundBlur_1488_8227" />
<feMergeNode in="color1" />
</feMerge>
</filter>
<filter id="filter20_fn_1488_8227" x="34.6309" y="16.7578" width="4.12502" height="4.21681" filterUnits="userSpaceOnUse" color-interpolation-filters="sRGB">
<feFlood flood-opacity="0" result="BackgroundImageFix"/>
<feBlend mode="normal" in="SourceGraphic" in2="BackgroundImageFix" result="shape"/>
<feGaussianBlur stdDeviation="0.454106" result="effect1_foregroundBlur_1488_8227"/>
<feTurbulence type="fractalNoise" baseFrequency="4404.2607421875 4404.2607421875" stitchTiles="stitch" numOctaves="3" result="noise" seed="1902" />
<feColorMatrix in="noise" type="luminanceToAlpha" result="alphaNoise" />
<feComponentTransfer in="alphaNoise" result="coloredNoise1">
<feFuncA type="discrete" tableValues="1 1 1 1 1 1 1 1 1 1 1 1 1 1 1 1 1 1 1 1 1 1 1 1 1 1 1 1 1 1 1 1 1 1 1 1 1 1 1 1 1 1 1 1 1 1 1 1 1 1 1 0 0 0 0 0 0 0 0 0 0 0 0 0 0 0 0 0 0 0 0 0 0 0 0 0 0 0 0 0 0 0 0 0 0 0 0 0 0 0 0 0 0 0 0 0 0 0 0 0 "/>
</feComponentTransfer>
<feComposite operator="in" in2="effect1_foregroundBlur_1488_8227" in="coloredNoise1" result="noise1Clipped" />
<feFlood flood-color="rgba(0, 0, 0, 0.25)" result="color1Flood" />
<feComposite operator="in" in2="noise1Clipped" in="color1Flood" result="color1" />
<feMerge result="effect2_noise_1488_8227">
<feMergeNode in="effect1_foregroundBlur_1488_8227" />
<feMergeNode in="color1" />
</feMerge>
</filter>
<linearGradient id="paint0_linear_1488_8227" x1="40.9853" y1="27.5961" x2="19.914" y2="29.9627" gradientUnits="userSpaceOnUse">
<stop stop-color="#53A9E8"/>
<stop offset="1" stop-color="#1174BD" stop-opacity="0.5"/>
</linearGradient>
<linearGradient id="paint1_linear_1488_8227" x1="8.27054" y1="23.3672" x2="8.27054" y2="27.9083" gradientUnits="userSpaceOnUse">
<stop stop-color="white"/>
<stop offset="1" stop-color="white"/>
</linearGradient>
<linearGradient id="paint2_linear_1488_8227" x1="17.5655" y1="16.0918" x2="17.5655" y2="20.6329" gradientUnits="userSpaceOnUse">
<stop stop-color="white"/>
<stop offset="1" stop-color="white"/>
</linearGradient>
<linearGradient id="paint3_linear_1488_8227" x1="26.6475" y1="23.3672" x2="26.6475" y2="27.9083" gradientUnits="userSpaceOnUse">
<stop stop-color="white"/>
<stop offset="1" stop-color="white"/>
</linearGradient>
<linearGradient id="paint4_linear_1488_8227" x1="35.7295" y1="16.0918" x2="35.7295" y2="20.6329" gradientUnits="userSpaceOnUse">
<stop stop-color="white"/>
<stop offset="1" stop-color="white"/>
</linearGradient>
<clipPath id="clip0_1488_8227">
<rect x="6" y="23.3672" width="4.54107" height="4.54107" rx="2.27054" fill="white"/>
</clipPath>
<clipPath id="clip2_1488_8227">
<rect x="15.2949" y="16.0918" width="4.54107" height="4.54107" rx="2.27054" fill="white"/>
</clipPath>
<clipPath id="clip4_1488_8227">
<rect x="24.377" y="23.3672" width="4.54107" height="4.54107" rx="2.27054" fill="white"/>
</clipPath>
<clipPath id="clip6_1488_8227">
<rect x="33.459" y="16.0918" width="4.54107" height="4.54107" rx="2.27054" fill="white"/>
</clipPath>
</defs>
</svg>
