<svg preserveAspectRatio="none" overflow="visible" style="display: block;" width="20" height="20" viewBox="0 0 20 20" fill="none" xmlns="http://www.w3.org/2000/svg">
<g id="HouseLine">
<path id="Vector" d="M18.75 16.4063H17.3438V10.2477L17.7937 10.6977C17.8819 10.7843 18.0008 10.8326 18.1245 10.8321C18.2481 10.8315 18.3666 10.7821 18.454 10.6946C18.5413 10.6071 18.5906 10.4886 18.5911 10.365C18.5915 10.2413 18.543 10.1225 18.4563 10.0344L10.7734 2.35078C10.6719 2.24921 10.5513 2.16863 10.4186 2.11366C10.2859 2.05868 10.1436 2.03039 10 2.03039C9.85636 2.03039 9.71412 2.05868 9.58141 2.11366C9.44871 2.16863 9.32813 2.24921 9.22656 2.35078L1.54375 10.0344C1.45697 10.1225 1.40852 10.2413 1.40895 10.365C1.40938 10.4886 1.45865 10.6071 1.54604 10.6946C1.63343 10.7821 1.75185 10.8315 1.87551 10.8321C1.99917 10.8326 2.11805 10.7843 2.20625 10.6977L2.65625 10.2477V16.4063H1.25C1.12568 16.4063 1.00645 16.4556 0.918544 16.5435C0.830636 16.6315 0.78125 16.7507 0.78125 16.875C0.78125 16.9993 0.830636 17.1185 0.918544 17.2065C1.00645 17.2944 1.12568 17.3438 1.25 17.3438H18.75C18.8743 17.3438 18.9935 17.2944 19.0815 17.2065C19.1694 17.1185 19.2188 16.9993 19.2188 16.875C19.2188 16.7507 19.1694 16.6315 19.0815 16.5435C18.9935 16.4556 18.8743 16.4063 18.75 16.4063ZM3.59375 9.31016L9.88906 3.01406C9.90359 2.99942 9.92087 2.98779 9.93991 2.97986C9.95895 2.97193 9.97937 2.96784 10 2.96784C10.0206 2.96784 10.041 2.97193 10.0601 2.97986C10.0791 2.98779 10.0964 2.99942 10.1109 3.01406L16.4062 9.31016V16.4063H12.3438V11.875C12.3438 11.7507 12.2944 11.6315 12.2065 11.5435C12.1185 11.4556 11.9993 11.4062 11.875 11.4062H8.125C8.00068 11.4062 7.88145 11.4556 7.79354 11.5435C7.70564 11.6315 7.65625 11.7507 7.65625 11.875V16.4063H3.59375V9.31016ZM11.4062 16.4063H8.59375V12.3438H11.4062V16.4063Z" fill="white"/>
</g>
</svg>
