<svg width="44" height="44" viewBox="0 0 44 44" fill="none" xmlns="http://www.w3.org/2000/svg">
<g id="Visualization Type - Maps">
<g id="Area">
<g id="Frame 2087328382" clip-path="url(#clip0_1488_8227)">
<rect id="Rectangle 427320456" width="20" height="20" transform="matrix(0.866025 0.5 -0.866025 0.5 22 12)" fill="white"/>
<foreignObject x="3.99383" y="9.54593" width="36.0123" height="23.1399"><div xmlns="http://www.w3.org/1999/xhtml" style="backdrop-filter:blur(0.34px);clip-path:url(#bgblur_1_1488_8227_clip_path);height:100%;width:100%"></div></foreignObject><g id="Rectangle 427320457" filter="url(#filter0_iii_1488_8227)" data-figma-bg-blur-radius="0.68586">
<rect width="20" height="20" transform="matrix(0.866025 0.5 -0.866025 0.5 22 12)" fill="url(#paint0_linear_1488_8227)"/>
</g>
<g id="Vector 47" filter="url(#filter1_fn_1488_8227)">
<path d="M36.6555 19.5229C36.6065 19.1734 36.4486 18.8394 36.187 18.5944C35.9256 18.3494 35.5859 18.2135 35.2359 18.2167C34.8858 18.22 34.5487 18.3621 34.2919 18.6118C34.0348 18.8616 33.8831 19.1985 33.8406 19.5488C33.8406 19.5488 33.8406 19.5488 33.8406 19.5488C33.7869 19.9609 33.7195 20.3344 33.6314 20.7062C32.9182 23.3337 32.4289 22.429 28.5824 24.0828C27.5364 24.632 26.5633 25.1002 25.7198 25.3141C24.9515 25.5119 24.2446 25.5487 23.3706 25.4304C19.1633 25.4113 17.1678 26.5419 14.2877 27.5552C13.8652 27.7242 13.4463 27.8989 13.0319 28.0808C12.8387 28.1666 12.6651 28.3038 12.5546 28.4882C12.4441 28.6724 12.4052 28.886 12.4479 29.0888C12.4906 29.2916 12.6123 29.4713 12.7877 29.5953C12.9632 29.7194 13.1775 29.775 13.3888 29.7756C13.3888 29.7756 13.3888 29.7756 13.3888 29.7756C13.8257 29.7796 14.2785 29.779 14.7256 29.7764C16.1563 29.7704 17.5812 29.7337 18.9764 29.6885C19.6737 29.6666 20.365 29.6423 21.0299 29.6308C21.3576 29.6258 21.6893 29.6232 21.9829 29.6323C22.1272 29.637 22.268 29.6445 22.3799 29.6567C22.4785 29.6659 22.5979 29.6956 22.4806 29.6857C23.8182 30.0427 25.4314 30.0858 26.8524 29.7018C28.4213 29.2895 29.6619 28.5755 30.7704 27.8947C31.3812 27.4195 32.8441 27.2067 34.5299 26.0185C36.318 24.7353 36.793 22.5067 36.7573 21.0149C36.7567 20.4904 36.7167 20.0166 36.6555 19.5229Z" fill="#1174BD"/>
</g>
<g id="Vector 50" filter="url(#filter2_fn_1488_8227)">
<path d="M33.1382 14.5402C33.3677 14.2417 33.5052 13.872 33.4977 13.4894C33.4903 13.107 33.3415 12.7462 33.0786 12.4809C32.8158 12.2156 32.4563 12.0634 32.074 12.0525C31.6915 12.0414 31.3206 12.1755 31.0199 12.4023C31.0199 12.4023 31.0199 12.4023 31.0199 12.4023C30.7831 12.5424 30.3878 12.7854 30.0392 12.9667C28.2421 13.9129 26.2783 14.5534 24.3001 14.9403C22.6692 15.246 20.8405 15.5281 19.0956 15.8131C15.1476 16.4268 11.2401 17.3303 7.32554 17.9226C6.89589 17.9831 6.4516 18.0338 6.02493 18.0705C5.80001 18.0859 5.57555 18.159 5.39661 18.3024C5.21769 18.4456 5.09939 18.6443 5.06658 18.8627C5.03376 19.081 5.08841 19.3058 5.21733 19.4952C5.34623 19.6849 5.53929 19.8207 5.74972 19.9016C5.74972 19.9016 5.74972 19.9016 5.74972 19.9016C6.20815 20.0715 6.6913 20.2152 7.15939 20.3373C11.4441 21.3819 15.7273 21.2386 19.8684 20.5958C21.7252 20.2903 23.535 19.9194 25.4396 19.343C27.846 18.5914 30.1064 17.3818 31.9998 15.6933C32.3928 15.3385 32.7134 15.026 33.1382 14.5402Z" fill="#1174BD"/>
</g>
<g id="Vector 48" filter="url(#filter3_fn_1488_8227)">
<path d="M31.6924 18.6799C31.6707 18.5723 31.6536 18.4763 31.6421 18.4078C31.6301 18.3381 31.6207 18.2939 31.6 18.254C31.5793 18.2142 31.5487 18.181 31.4987 18.1309C31.4493 18.0821 31.3808 18.0128 31.3054 17.933C31.3054 17.933 31.3054 17.933 31.3054 17.933C30.6673 17.2369 30.2218 16.9524 29.9817 17.0739C29.8915 17.1195 29.7874 17.1721 29.6876 17.2224C25.6401 19.1987 21.292 21.6227 17.4912 22.7084C15.7787 22.9997 13.65 22.5908 11.6797 22.0151C11.3322 21.9117 10.9715 21.7948 10.658 21.6841C10.421 22.1753 10.184 22.6665 9.94703 23.1576C10.3098 23.3655 10.647 23.5418 11.0063 23.7186C13.0327 24.6771 15.1742 25.5314 17.7813 25.4427C23.0632 24.5776 27.0099 22.4464 31.2935 20.416C31.3959 20.3647 31.5027 20.3109 31.5954 20.264C31.8419 20.1393 31.8835 19.6068 31.6924 18.6799Z" fill="#1174BD"/>
</g>
<foreignObject x="13.1986" y="21.3158" width="13.5852" height="10.8733"><div xmlns="http://www.w3.org/1999/xhtml" style="backdrop-filter:blur(1.64px);height:100%;width:100%"></div></foreignObject><line id="Line 8365" data-figma-bg-blur-radius="3.27209" x1="23.4783" y1="24.6425" x2="16.5033" y2="28.862" stroke="white" stroke-opacity="0.2" stroke-width="0.163604"/>
<foreignObject x="25.1537" y="15.181" width="11.4817" height="9.66527"><div xmlns="http://www.w3.org/1999/xhtml" style="backdrop-filter:blur(1.64px);height:100%;width:100%"></div></foreignObject><line id="Line 8371" data-figma-bg-blur-radius="3.27209" x1="33.3306" y1="18.5076" x2="28.4597" y2="21.5193" stroke="white" stroke-opacity="0.2" stroke-width="0.163604"/>
<foreignObject x="7.09705" y="12.0131" width="24.0071" height="16.6262"><div xmlns="http://www.w3.org/1999/xhtml" style="backdrop-filter:blur(1.64px);height:100%;width:100%"></div></foreignObject><line id="Line 8366" data-figma-bg-blur-radius="3.27209" y1="-0.0818022" x2="20" y2="-0.0818022" transform="matrix(-0.866025 0.5 -0.866025 -0.5 27.6895 15.2852)" stroke="white" stroke-opacity="0.2" stroke-width="0.163604"/>
<foreignObject x="18.1049" y="15.601" width="21.0266" height="11.8791"><div xmlns="http://www.w3.org/1999/xhtml" style="backdrop-filter:blur(1.64px);height:100%;width:100%"></div></foreignObject><line id="Line 8367" data-figma-bg-blur-radius="3.27209" x1="21.3974" y1="18.9297" x2="35.8387" y2="24.151" stroke="white" stroke-opacity="0.2" stroke-width="0.163604"/>
<foreignObject x="5.36854" y="16.3305" width="12.3899" height="9.97679"><div xmlns="http://www.w3.org/1999/xhtml" style="backdrop-filter:blur(1.64px);height:100%;width:100%"></div></foreignObject><line id="Line 8368" data-figma-bg-blur-radius="3.27209" x1="8.67218" y1="19.657" x2="14.4546" y2="22.9802" stroke="white" stroke-opacity="0.2" stroke-width="0.163604"/>
<foreignObject x="12.2709" y="12.3197" width="12.4407" height="9.93968"><div xmlns="http://www.w3.org/1999/xhtml" style="backdrop-filter:blur(1.64px);height:100%;width:100%"></div></foreignObject><line id="Line 8369" data-figma-bg-blur-radius="3.27209" x1="15.5739" y1="15.6471" x2="21.4079" y2="18.932" stroke="white" stroke-opacity="0.2" stroke-width="0.163604"/>
<foreignObject x="15.056" y="17.4008" width="16.8547" height="14.2688"><div xmlns="http://www.w3.org/1999/xhtml" style="backdrop-filter:blur(1.64px);height:100%;width:100%"></div></foreignObject><line id="Line 8370" data-figma-bg-blur-radius="3.27209" x1="18.3677" y1="20.7262" x2="28.599" y2="28.344" stroke="white" stroke-opacity="0.2" stroke-width="0.163604"/>
</g>
</g>
</g>
<defs>
<filter id="filter0_iii_1488_8227" x="3.99383" y="9.54593" width="36.0123" height="23.1399" filterUnits="userSpaceOnUse" color-interpolation-filters="sRGB">
<feFlood flood-opacity="0" result="BackgroundImageFix"/>
<feBlend mode="normal" in="SourceGraphic" in2="BackgroundImageFix" result="shape"/>
<feColorMatrix in="SourceAlpha" type="matrix" values="0 0 0 0 0 0 0 0 0 0 0 0 0 0 0 0 0 0 127 0" result="hardAlpha"/>
<feOffset dy="-2.45407"/>
<feGaussianBlur stdDeviation="1.86918"/>
<feComposite in2="hardAlpha" operator="arithmetic" k2="-1" k3="1"/>
<feColorMatrix type="matrix" values="0 0 0 0 0.324227 0 0 0 0 0.663513 0 0 0 0 0.911245 0 0 0 0.25 0"/>
<feBlend mode="normal" in2="shape" result="effect1_innerShadow_1488_8227"/>
<feColorMatrix in="SourceAlpha" type="matrix" values="0 0 0 0 0 0 0 0 0 0 0 0 0 0 0 0 0 0 127 0" result="hardAlpha"/>
<feOffset dy="-0.458092"/>
<feGaussianBlur stdDeviation="0.818022"/>
<feComposite in2="hardAlpha" operator="arithmetic" k2="-1" k3="1"/>
<feColorMatrix type="matrix" values="0 0 0 0 0.32549 0 0 0 0 0.662745 0 0 0 0 0.909804 0 0 0 1 0"/>
<feBlend mode="normal" in2="effect1_innerShadow_1488_8227" result="effect2_innerShadow_1488_8227"/>
<feColorMatrix in="SourceAlpha" type="matrix" values="0 0 0 0 0 0 0 0 0 0 0 0 0 0 0 0 0 0 127 0" result="hardAlpha"/>
<feOffset dy="0.245407"/>
<feGaussianBlur stdDeviation="0.409011"/>
<feComposite in2="hardAlpha" operator="arithmetic" k2="-1" k3="1"/>
<feColorMatrix type="matrix" values="0 0 0 0 0.32549 0 0 0 0 0.662745 0 0 0 0 0.909804 0 0 0 0.25 0"/>
<feBlend mode="normal" in2="effect2_innerShadow_1488_8227" result="effect3_innerShadow_1488_8227"/>
</filter>
<clipPath id="bgblur_1_1488_8227_clip_path" transform="translate(-3.99383 -9.54593)"><rect width="20" height="20" transform="matrix(0.866025 0.5 -0.866025 0.5 22 12)"/>
</clipPath><filter id="filter1_fn_1488_8227" x="8.60605" y="14.3912" width="31.9793" height="19.4061" filterUnits="userSpaceOnUse" color-interpolation-filters="sRGB">
<feFlood flood-opacity="0" result="BackgroundImageFix"/>
<feBlend mode="normal" in="SourceGraphic" in2="BackgroundImageFix" result="shape"/>
<feGaussianBlur stdDeviation="1.9128" result="effect1_foregroundBlur_1488_8227"/>
<feTurbulence type="fractalNoise" baseFrequency="1045.5899658203125 1045.5899658203125" stitchTiles="stitch" numOctaves="3" result="noise" seed="4227" />
<feColorMatrix in="noise" type="luminanceToAlpha" result="alphaNoise" />
<feComponentTransfer in="alphaNoise" result="coloredNoise1">
<feFuncA type="discrete" tableValues="1 1 1 1 1 1 1 1 1 1 1 1 1 1 1 1 1 1 1 1 1 1 1 1 1 1 1 1 1 1 1 1 1 1 1 1 1 1 1 1 1 1 1 1 1 1 1 1 1 1 1 0 0 0 0 0 0 0 0 0 0 0 0 0 0 0 0 0 0 0 0 0 0 0 0 0 0 0 0 0 0 0 0 0 0 0 0 0 0 0 0 0 0 0 0 0 0 0 0 0 "/>
</feComponentTransfer>
<feComposite operator="in" in2="effect1_foregroundBlur_1488_8227" in="coloredNoise1" result="noise1Clipped" />
<feFlood flood-color="rgba(0, 0, 0, 0.25)" result="color1Flood" />
<feComposite operator="in" in2="noise1Clipped" in="color1Flood" result="color1" />
<feMerge result="effect2_noise_1488_8227">
<feMergeNode in="effect1_foregroundBlur_1488_8227" />
<feMergeNode in="color1" />
</feMerge>
</filter>
<filter id="filter2_fn_1488_8227" x="-0.734956" y="6.26016" width="40.0246" height="20.631" filterUnits="userSpaceOnUse" color-interpolation-filters="sRGB">
<feFlood flood-opacity="0" result="BackgroundImageFix"/>
<feBlend mode="normal" in="SourceGraphic" in2="BackgroundImageFix" result="shape"/>
<feGaussianBlur stdDeviation="2.8958" result="effect1_foregroundBlur_1488_8227"/>
<feTurbulence type="fractalNoise" baseFrequency="961.6761474609375 961.6761474609375" stitchTiles="stitch" numOctaves="3" result="noise" seed="4227" />
<feColorMatrix in="noise" type="luminanceToAlpha" result="alphaNoise" />
<feComponentTransfer in="alphaNoise" result="coloredNoise1">
<feFuncA type="discrete" tableValues="1 1 1 1 1 1 1 1 1 1 1 1 1 1 1 1 1 1 1 1 1 1 1 1 1 1 1 1 1 1 1 1 1 1 1 1 1 1 1 1 1 1 1 1 1 1 1 1 1 1 1 0 0 0 0 0 0 0 0 0 0 0 0 0 0 0 0 0 0 0 0 0 0 0 0 0 0 0 0 0 0 0 0 0 0 0 0 0 0 0 0 0 0 0 0 0 0 0 0 0 "/>
</feComponentTransfer>
<feComposite operator="in" in2="effect1_foregroundBlur_1488_8227" in="coloredNoise1" result="noise1Clipped" />
<feFlood flood-color="rgba(0, 0, 0, 0.25)" result="color1Flood" />
<feComposite operator="in" in2="noise1Clipped" in="color1Flood" result="color1" />
<feMerge result="effect2_noise_1488_8227">
<feMergeNode in="effect1_foregroundBlur_1488_8227" />
<feMergeNode in="color1" />
</feMerge>
</filter>
<filter id="filter3_fn_1488_8227" x="6.12167" y="13.2213" width="29.5164" height="16.0535" filterUnits="userSpaceOnUse" color-interpolation-filters="sRGB">
<feFlood flood-opacity="0" result="BackgroundImageFix"/>
<feBlend mode="normal" in="SourceGraphic" in2="BackgroundImageFix" result="shape"/>
<feGaussianBlur stdDeviation="1.9128" result="effect1_foregroundBlur_1488_8227"/>
<feTurbulence type="fractalNoise" baseFrequency="1045.5899658203125 1045.5899658203125" stitchTiles="stitch" numOctaves="3" result="noise" seed="1902" />
<feColorMatrix in="noise" type="luminanceToAlpha" result="alphaNoise" />
<feComponentTransfer in="alphaNoise" result="coloredNoise1">
<feFuncA type="discrete" tableValues="1 1 1 1 1 1 1 1 1 1 1 1 1 1 1 1 1 1 1 1 1 1 1 1 1 1 1 1 1 1 1 1 1 1 1 1 1 1 1 1 1 1 1 1 1 1 1 1 1 1 1 0 0 0 0 0 0 0 0 0 0 0 0 0 0 0 0 0 0 0 0 0 0 0 0 0 0 0 0 0 0 0 0 0 0 0 0 0 0 0 0 0 0 0 0 0 0 0 0 0 "/>
</feComponentTransfer>
<feComposite operator="in" in2="effect1_foregroundBlur_1488_8227" in="coloredNoise1" result="noise1Clipped" />
<feFlood flood-color="rgba(0, 0, 0, 0.25)" result="color1Flood" />
<feComposite operator="in" in2="noise1Clipped" in="color1Flood" result="color1" />
<feMerge result="effect2_noise_1488_8227">
<feMergeNode in="effect1_foregroundBlur_1488_8227" />
<feMergeNode in="color1" />
</feMerge>
</filter>
<linearGradient id="paint0_linear_1488_8227" x1="20" y1="20" x2="-1.98742" y2="17.9677" gradientUnits="userSpaceOnUse">
<stop stop-color="#1174BD"/>
<stop offset="1" stop-color="#53A9E8" stop-opacity="0.5"/>
</linearGradient>
<clipPath id="clip0_1488_8227">
<rect width="20" height="20" fill="white" transform="matrix(0.866025 0.5 -0.866025 0.5 22 12)"/>
</clipPath>
</defs>
</svg>
